<svg xmlns="http://www.w3.org/2000/svg" xmlns:xlink="http://www.w3.org/1999/xlink" viewBox="0 0 494 445"><g id="ss3877274131_1"><path d="M 0 0 L 493.386 0 L 493.386 444.651 L 0 444.651 Z" fill="transparent"></path><path d="M 57.437 356.998 C 26.568 313.172 -44.014 184.928 98.27 146.609 C 240.554 108.303 194.997 -1.167 298.93 0.433 C 402.863 2.045 504.868 88.952 492.337 171.409 C 479.807 253.866 365.765 247.312 333.884 332.487 C 302.003 417.663 111.728 434.079 57.437 356.998 Z" fill="rgba(13,20,34,0.54)" opacity="0.7"></path><path d="M 89.607 58.716 L 372.271 58.716 C 382.585 58.716 390.947 67.063 390.947 77.358 L 390.947 220.383 C 390.947 230.678 382.585 239.025 372.271 239.025 L 89.607 239.025 C 79.293 239.025 70.931 230.678 70.931 220.383 L 70.931 77.358 C 70.931 67.063 79.293 58.716 89.607 58.716 Z" fill="rgb(0,5,15)" stroke-width="0.83" stroke="rgb(75,101,161)" stroke-miterlimit="10"></path><path d="M 373.211 70.599 L 88.667 70.599 C 85.193 70.599 82.378 73.409 82.378 76.877 L 82.378 221.321 C 82.378 224.789 85.193 227.599 88.667 227.599 L 373.211 227.599 C 376.685 227.599 379.5 224.789 379.5 221.321 L 379.5 76.877 C 379.5 73.409 376.685 70.599 373.211 70.599 Z" fill="rgb(0,5,15)" stroke-width="0.83" stroke="rgb(75,101,161)" stroke-linecap="round" stroke-linejoin="round"></path><path d="M 360.813 177.326 L 339.691 177.326 C 338.366 177.326 337.282 176.244 337.282 174.921 C 337.282 173.598 338.366 172.516 339.691 172.516 L 360.813 172.516 C 362.138 172.516 363.223 173.598 363.223 174.921 C 363.223 176.244 362.138 177.326 360.813 177.326 Z M 360.813 193.96 L 301.858 193.96 C 300.533 193.96 299.448 192.877 299.448 191.554 C 299.448 190.231 300.533 189.149 301.858 189.149 L 360.813 189.149 C 362.138 189.149 363.223 190.231 363.223 191.554 C 363.223 192.877 362.138 193.96 360.813 193.96 Z M 360.813 210.593 L 230.939 210.593 C 229.614 210.593 228.529 209.511 228.529 208.188 C 228.529 206.865 229.614 205.782 230.939 205.782 L 360.813 205.782 C 362.138 205.782 363.223 206.865 363.223 208.188 C 363.223 209.511 362.138 210.593 360.813 210.593 Z M 104.668 160.681 L 94.836 160.681 C 93.511 160.681 92.426 159.599 92.426 158.276 C 92.426 156.953 93.511 155.87 94.836 155.87 L 104.668 155.87 C 105.993 155.87 107.078 156.953 107.078 158.276 C 107.078 159.599 105.993 160.681 104.668 160.681 Z M 104.668 177.326 L 94.836 177.326 C 93.511 177.326 92.426 176.244 92.426 174.921 C 92.426 173.598 93.511 172.516 94.836 172.516 L 104.668 172.516 C 105.993 172.516 107.078 173.598 107.078 174.921 C 107.078 176.244 105.993 177.326 104.668 177.326 Z M 104.668 193.96 L 94.836 193.96 C 93.511 193.96 92.426 192.877 92.426 191.554 C 92.426 190.231 93.511 189.149 94.836 189.149 L 104.668 189.149 C 105.993 189.149 107.078 190.231 107.078 191.554 C 107.078 192.877 105.993 193.96 104.668 193.96 Z M 104.668 210.593 L 94.836 210.593 C 93.511 210.593 92.426 209.511 92.426 208.188 C 92.426 206.865 93.511 205.782 94.836 205.782 L 104.668 205.782 C 105.993 205.782 107.078 206.865 107.078 208.188 C 107.078 209.511 105.993 210.593 104.668 210.593 Z" fill="rgb(71,81,105)"></path><path d="M 104.668 160.681 L 94.836 160.681 C 93.511 160.681 92.426 159.599 92.426 158.276 C 92.426 156.953 93.511 155.87 94.836 155.87 L 104.668 155.87 C 105.993 155.87 107.078 156.953 107.078 158.276 C 107.078 159.599 105.993 160.681 104.668 160.681 Z M 104.668 177.326 L 94.836 177.326 C 93.511 177.326 92.426 176.244 92.426 174.921 C 92.426 173.598 93.511 172.516 94.836 172.516 L 104.668 172.516 C 105.993 172.516 107.078 173.598 107.078 174.921 C 107.078 176.244 105.993 177.326 104.668 177.326 Z M 104.668 193.96 L 94.836 193.96 C 93.511 193.96 92.426 192.877 92.426 191.554 C 92.426 190.231 93.511 189.149 94.836 189.149 L 104.668 189.149 C 105.993 189.149 107.078 190.231 107.078 191.554 C 107.078 192.877 105.993 193.96 104.668 193.96 Z M 104.668 210.593 L 94.836 210.593 C 93.511 210.593 92.426 209.511 92.426 208.188 C 92.426 206.865 93.511 205.782 94.836 205.782 L 104.668 205.782 C 105.993 205.782 107.078 206.865 107.078 208.188 C 107.078 209.511 105.993 210.593 104.668 210.593 Z" fill="rgb(71,81,105)" opacity="0.7"></path><path d="M 301.858 144.048 L 94.824 144.048 C 93.499 144.048 92.414 142.965 92.414 141.642 C 92.414 140.319 93.499 139.237 94.824 139.237 L 301.858 139.237 C 303.183 139.237 304.268 140.319 304.268 141.642 C 304.268 142.965 303.183 144.048 301.858 144.048 Z M 360.813 110.769 L 339.691 110.769 C 338.366 110.769 337.282 109.686 337.282 108.364 C 337.282 107.041 338.366 105.958 339.691 105.958 L 360.813 105.958 C 362.138 105.958 363.223 107.041 363.223 108.364 C 363.223 109.686 362.138 110.769 360.813 110.769 Z M 330.86 110.769 L 310.69 110.769 C 309.364 110.769 308.28 109.686 308.28 108.364 C 308.28 107.041 309.364 105.958 310.69 105.958 L 330.86 105.958 C 332.185 105.958 333.269 107.041 333.269 108.364 C 333.269 109.686 332.185 110.769 330.86 110.769 Z M 301.858 110.769 L 94.824 110.769 C 93.499 110.769 92.414 109.686 92.414 108.364 C 92.414 107.041 93.499 105.958 94.824 105.958 L 301.858 105.958 C 303.183 105.958 304.268 107.041 304.268 108.364 C 304.268 109.686 303.183 110.769 301.858 110.769 Z M 360.813 160.681 L 339.691 160.681 C 338.366 160.681 337.282 159.599 337.282 158.276 C 337.282 156.953 338.366 155.87 339.691 155.87 L 360.813 155.87 C 362.138 155.87 363.223 156.953 363.223 158.276 C 363.223 159.599 362.138 160.681 360.813 160.681 Z M 330.86 160.681 L 115.512 160.681 C 114.186 160.681 113.102 159.599 113.102 158.276 C 113.102 156.953 114.186 155.87 115.512 155.87 L 330.872 155.87 C 332.197 155.87 333.281 156.953 333.281 158.276 C 333.281 159.599 332.197 160.681 330.872 160.681 Z M 177.358 177.326 L 115.512 177.326 C 114.186 177.326 113.102 176.244 113.102 174.921 C 113.102 173.598 114.186 172.516 115.512 172.516 L 177.358 172.516 C 178.683 172.516 179.768 173.598 179.768 174.921 C 179.768 176.244 178.683 177.326 177.358 177.326 Z M 177.358 193.96 L 115.512 193.96 C 114.186 193.96 113.102 192.877 113.102 191.554 C 113.102 190.231 114.186 189.149 115.512 189.149 L 177.358 189.149 C 178.683 189.149 179.768 190.231 179.768 191.554 C 179.768 192.877 178.683 193.96 177.358 193.96 Z M 177.358 210.593 L 115.512 210.593 C 114.186 210.593 113.102 209.511 113.102 208.188 C 113.102 206.865 114.186 205.782 115.512 205.782 L 177.358 205.782 C 178.683 205.782 179.768 206.865 179.768 208.188 C 179.768 209.511 178.683 210.593 177.358 210.593 Z" fill="rgb(71,81,105)"></path><path d="M 136.742 423.977 C 136.742 423.977 130.416 434.837 132.91 435.222 C 135.404 435.619 140.609 426.226 140.609 426.226 L 154.887 422.449 L 144.14 421.343 L 136.754 423.977 Z" fill="rgb(0,5,15)" stroke-width="0.83" stroke="rgb(75,101,161)" stroke-linecap="round" stroke-linejoin="round"></path><path d="M 136.742 423.977 C 136.742 423.977 130.416 434.837 132.91 435.222 C 135.404 435.619 140.609 426.226 140.609 426.226 L 154.887 422.449 L 144.14 421.343 L 136.754 423.977 Z" fill="rgb(0,0,0)" stroke-width="0.83" stroke="rgb(75,101,161)" stroke-linecap="round" stroke-linejoin="round" opacity="0.3"></path><path d="M 141.549 416.568 C 141.549 416.568 132.705 414.463 130.271 418.613 C 127.826 422.762 120.681 435.018 123.355 436.425 C 126.03 437.832 128.38 433.298 128.38 433.298 L 141.549 416.568 Z" fill="rgb(0,5,15)" stroke-width="0.83" stroke="rgb(75,101,161)" stroke-linecap="round" stroke-linejoin="round"></path><path d="M 177.72 429.148 C 177.72 429.148 168.852 432.492 159.598 431.049 L 149.537 434.38 C 149.537 434.38 140.694 438.722 136.585 436.533 C 132.476 434.344 147.067 429.509 147.067 429.509 C 147.067 429.509 156.887 425.264 153.959 424.253 C 151.031 423.231 139.947 423.424 137.778 425.095 C 135.597 426.767 129.898 437.555 125.777 436.942 C 121.657 436.329 127.512 430.447 128.994 428.186 C 130.476 425.925 133.79 416.905 140.513 416.52 C 147.236 416.147 169.876 417.302 169.876 417.302 L 196.492 414.463 L 202.769 429.581 L 177.732 429.148 Z" fill="rgb(55,80,137)" stroke-width="0.83" stroke="rgb(75,101,161)" stroke-linecap="round" stroke-linejoin="round"></path><path d="M 191.612 432.889 C 192.901 433.695 194.72 434.212 196.684 432.817 C 196.684 432.817 199.564 434.067 201.516 431.927 C 203.456 429.786 203.636 411.12 198.251 409.015 C 196.696 408.414 192.829 408.474 192.19 410.639 C 192.19 410.639 188.841 409.496 188.274 413.068 C 187.744 416.436 191.094 419.575 189.973 429.257 C 189.804 430.688 190.455 432.155 191.612 432.889 Z" fill="rgb(0,5,15)" stroke-width="0.83" stroke="rgb(75,101,161)" stroke-linecap="round" stroke-linejoin="round"></path><path d="M 191.612 432.889 C 192.901 433.695 194.72 434.212 196.684 432.817 C 196.684 432.817 199.564 434.067 201.516 431.927 C 203.456 429.786 203.636 411.12 198.251 409.015 C 196.696 408.414 192.829 408.474 192.19 410.639 C 192.19 410.639 188.841 409.496 188.274 413.068 C 187.744 416.436 191.094 419.575 189.973 429.257 C 189.804 430.688 190.455 432.155 191.612 432.889 Z" fill="rgb(0,0,0)" stroke-width="0.83" stroke="rgb(75,101,161)" stroke-linecap="round" stroke-linejoin="round" opacity="0.3"></path><path d="M 197.745 428.535 C 197.745 428.535 197.901 420.441 194.564 413.778" fill="transparent" stroke-width="0.83" stroke="rgb(75,101,161)" stroke-linecap="round" stroke-linejoin="round"></path><path d="M 324.425 421.752 C 323.534 428.595 322.522 436.004 321.365 444.05 L 217.938 444.05 L 218.432 430.748 C 212.251 432.239 200.239 431.325 200.239 431.325 L 200.239 411.661 C 207.54 407.536 208.625 408.69 208.625 408.69 C 208.625 408.69 208.998 360.703 213.372 348.724 C 215.227 343.648 218.481 340.028 221.926 337.49 C 223.011 336.673 224.107 335.975 225.192 335.374 C 225.252 335.338 225.3 335.314 225.348 335.277 C 226.553 334.64 228.011 333.966 229.674 333.269 C 229.818 333.209 229.975 333.149 230.132 333.089 C 246.325 326.486 281.664 318.824 314.594 332.872 C 316.895 333.858 335.691 342.818 337.294 355.771 C 338.209 363.156 333.173 399.887 324.425 421.752 Z" fill="rgb(0,5,15)"></path><path d="M 308.039 362.591 L 297.725 410.374 C 296.123 409.111 291.508 409.027 285.64 409.58 C 286.93 408.149 287.978 406.598 288.761 404.914 C 304.352 371.238 307.762 363.264 308.039 362.591 Z M 326.883 415.089 C 323.895 425.721 322.582 435.402 321.365 444.05 L 217.938 444.05 L 218.89 428.727 C 225.336 427.813 236.65 426.875 248.398 424.795 C 249.892 430.989 248.675 435.992 248.675 435.992 C 248.675 435.992 296.243 441.885 312.208 438.048 C 316.762 436.954 320.883 430.604 324.413 421.86 C 325.269 419.731 326.088 417.458 326.883 415.089 Z" fill="rgb(0,0,0)" opacity="0.2"></path><path d="M 209.854 409.592 C 209.854 409.592 207.54 407.536 200.227 411.661 L 200.227 431.325 C 200.227 431.325 212.275 430.892 217.011 428.343 C 221.083 430.856 220.36 384.829 221.083 360.041 C 215.179 361.665 214.709 372.874 213.794 383.422 C 212.54 397.962 209.866 409.592 209.866 409.592 Z" fill="rgb(0,0,0)" opacity="0.3"></path><path d="M 324.425 421.752 C 323.534 428.595 322.522 436.004 321.365 444.05 L 217.938 444.05 L 218.432 430.748 C 212.251 432.239 200.239 431.325 200.239 431.325 L 200.239 411.661 C 207.54 407.536 208.625 408.69 208.625 408.69 C 208.625 408.69 208.998 360.703 213.372 348.724 C 215.227 343.648 218.481 340.028 221.926 337.49 C 223.011 336.673 224.107 335.975 225.192 335.374 C 225.252 335.338 225.3 335.314 225.348 335.277 C 226.553 334.64 228.011 333.966 229.674 333.269 C 229.818 333.209 229.975 333.149 230.132 333.089 C 246.325 326.486 281.664 318.824 314.594 332.872 C 316.895 333.858 335.691 342.818 337.294 355.771 C 338.209 363.156 333.173 399.887 324.425 421.752 Z" fill="transparent" stroke-width="0.83" stroke="rgb(75,101,161)" stroke-linecap="round" stroke-linejoin="round"></path><path d="M 337.294 355.771 C 337.33 356.06 337.366 356.397 337.378 356.77 C 337.908 366.006 332.872 400.861 324.413 421.86 C 320.883 430.604 316.762 436.954 312.208 438.048 C 296.243 441.885 248.675 435.992 248.675 435.992 C 248.675 435.992 251.036 426.25 245.12 417.109 C 245.12 417.109 291.821 405.708 297.725 410.374 L 308.063 362.543" fill="transparent" stroke-width="0.83" stroke="rgb(75,101,161)" stroke-linecap="round" stroke-linejoin="round"></path><path d="M 300.979 412.972 C 300.979 412.972 305.412 414.74 309.256 420.056" fill="transparent" stroke-width="0.83" stroke="rgb(75,101,161)" stroke-linecap="round" stroke-linejoin="round"></path><path d="M 181.997 414.692 C 181.997 414.692 177.647 413.778 175.876 415.75 C 174.021 417.819 166.514 429.112 169.081 431.289 C 171.647 433.466 176.864 421.559 176.864 421.559 L 181.997 414.692 Z" fill="rgb(0,5,15)" stroke-width="0.83" stroke="rgb(75,101,161)" stroke-linecap="round" stroke-linejoin="round"></path><path d="M 190.744 414.487 C 190.744 414.487 181.069 412.419 178.9 415.365 C 176.732 418.312 164.538 433.55 172.129 434.043 L 184.25 420.477 L 190.756 414.487 Z" fill="rgb(0,5,15)" stroke-width="0.83" stroke="rgb(75,101,161)" stroke-linecap="round" stroke-linejoin="round"></path><path d="M 212.613 430.7 C 212.613 430.7 202.673 432.865 198.636 433.646 C 194.6 434.428 187.106 439.648 182.684 437.579 C 178.25 435.511 197.166 427.849 197.166 427.849 L 203.673 425.24 L 212.625 430.7 Z" fill="rgb(55,80,137)" stroke-width="0.83" stroke="rgb(75,101,161)" stroke-linecap="round" stroke-linejoin="round"></path><path d="M 220.661 371.334 C 220.806 367.57 220.938 363.806 221.083 360.041 M 217.938 444.05 C 219.782 421.283 220.469 376.458 220.469 376.458" fill="transparent" stroke-width="0.83" stroke="rgb(75,101,161)" stroke-linecap="round" stroke-linejoin="round"></path><path d="M 248.675 418.408 L 214.396 418.408 C 214.396 418.408 187.804 410.446 183.37 416.64 C 178.936 422.834 169.478 432.275 172.141 434.043 C 174.804 435.811 186.033 422.979 186.033 422.979 L 195.781 423.075 C 195.781 423.075 187.503 426.671 185.732 428.439 C 183.961 430.207 180.117 435.222 182.19 436.112 C 184.262 437.002 190.756 430.507 190.756 430.507 C 190.756 430.507 200.504 428.15 202.877 429.329 C 205.239 430.507 214.697 435.234 227.409 431.686 L 253.567 434.933 L 248.687 418.42 Z" fill="rgb(75,101,161)" stroke-width="0.83" stroke="rgb(75,101,161)" stroke-linecap="round" stroke-linejoin="round"></path><path d="M 304.485 379.104 C 303.545 373.644 303.497 368.015 304.376 362.543 M 312.256 350.419 C 312.256 350.419 328.884 328.554 337.294 355.771" fill="transparent" stroke-width="0.83" stroke="rgb(75,101,161)" stroke-linecap="round" stroke-linejoin="round"></path><path d="M 241.638 415.714 C 242.687 414.608 244.313 413.658 246.578 414.536 C 246.578 414.536 249.06 412.611 251.47 414.199 C 253.892 415.786 258.699 433.827 254.012 437.206 C 252.663 438.181 248.892 439.083 247.735 437.134 C 247.735 437.134 244.783 439.071 243.337 435.751 C 241.988 432.624 244.446 428.751 240.952 419.647 C 240.433 418.3 240.698 416.712 241.638 415.726 Z" fill="rgb(9,23,48)"></path><path d="M 241.638 415.714 C 242.687 414.608 244.313 413.658 246.578 414.536 C 246.578 414.536 249.06 412.611 251.47 414.199 C 253.892 415.786 258.699 433.827 254.012 437.206 C 252.663 438.181 248.892 439.083 247.735 437.134 C 247.735 437.134 244.783 439.071 243.337 435.751 C 241.988 432.624 244.446 428.751 240.952 419.647 C 240.433 418.3 240.698 416.712 241.638 415.726 Z" fill="rgb(9,23,48)" opacity="0.3"></path><path d="M 241.638 415.714 C 242.687 414.608 244.313 413.658 246.578 414.536 C 246.578 414.536 249.06 412.611 251.47 414.199 C 253.892 415.786 258.699 433.827 254.012 437.206 C 252.663 438.181 248.892 439.083 247.735 437.134 C 247.735 437.134 244.783 439.071 243.337 435.751 C 241.988 432.624 244.446 428.751 240.952 419.647 C 240.433 418.3 240.698 416.712 241.638 415.726 Z" fill="transparent" stroke-width="0.83" stroke="rgb(75,101,161)" stroke-linecap="round" stroke-linejoin="round"></path><path d="M 249.253 425.083 C 249.651 427.886 249.747 430.736 249.35 433.55" fill="transparent" stroke-width="0.83" stroke="rgb(75,101,161)" stroke-linecap="round" stroke-linejoin="round"></path><path d="M 264.314 371.07 C 264.238 372.362 263.126 373.347 261.832 373.271 C 260.538 373.194 259.551 372.085 259.627 370.793 C 259.699 369.494 260.808 368.52 262.109 368.592 C 263.398 368.664 264.386 369.771 264.314 371.07 Z M 262.627 407.391 C 262.591 408.012 262.309 408.592 261.843 409.005 C 261.378 409.418 260.767 409.629 260.145 409.592 C 259.523 409.558 258.94 409.277 258.526 408.812 C 258.112 408.347 257.901 407.736 257.94 407.115 C 258.013 405.816 259.121 404.842 260.422 404.914 C 261.724 404.986 262.7 406.093 262.627 407.391 Z" fill="rgb(80,103,156)" stroke-width="0.83" stroke="rgb(75,101,161)" stroke-linecap="round" stroke-linejoin="round"></path><path d="M 284.146 326.594 L 282.423 302.359 L 257.302 308.169 L 255.964 327.628 C 254.374 327.821 252.868 328.049 251.398 328.278 L 257.543 342.975 L 269.555 344.55 L 288.761 326.883 C 287.207 326.762 285.665 326.666 284.146 326.594 Z" fill="rgb(75,101,161)"></path><path d="M 256.928 316.744 C 257.097 333.979 277.279 328.699 282.857 311.476 L 282.411 302.359 L 257.29 308.169 L 256.916 316.756 Z" fill="rgb(57,81,134)"></path><path d="M 284.146 326.594 L 282.423 302.359 L 257.302 308.169 L 255.964 327.628 C 254.374 327.821 252.868 328.049 251.398 328.278 L 257.543 342.975 L 269.555 344.55 L 288.761 326.883 C 287.207 326.762 285.665 326.666 284.146 326.594 Z" fill="transparent" stroke-width="0.83" stroke="rgb(75,101,161)" stroke-linecap="round" stroke-linejoin="round"></path><path d="M 241.542 281.901 C 241.542 281.901 232.373 266.05 231.011 257.691 C 226.818 231.869 245.494 240.577 245.494 240.577 C 245.494 240.577 258.699 228.778 275.146 230.847 C 291.593 232.915 295.93 239.903 306.991 244.185 C 306.991 244.185 298.677 286.291 288.038 295.733 C 277.399 305.174 241.542 281.901 241.542 281.901 Z" fill="rgb(0,7,20)" stroke-width="0.83" stroke="rgb(20,37,78)" stroke-linecap="round" stroke-linejoin="round"></path><path d="M 246.373 244.413 C 246.373 244.413 242.241 234.383 252.723 226.709" fill="transparent" stroke-width="0.83" stroke="rgb(75,101,161)" stroke-linecap="round" stroke-linejoin="round"></path><path d="M 264.423 238.388 C 276.7 232.964 282.17 242.032 295.882 244.413 M 254.94 244.413 C 256.025 242.994 257.422 241.815 258.916 240.853 M 267.543 248.346 C 267.543 248.346 272.857 243.247 283.399 249.874 C 289.171 253.494 293.93 254.011 293.93 254.011" fill="transparent" stroke-width="0.83" stroke="rgb(41,53,78)" stroke-miterlimit="10"></path><path d="M 283.785 259.363 C 268.495 259.76 252.723 252.868 252.723 252.868 C 238.482 261.444 240.602 275.383 240.602 275.383 C 243.855 308.698 248.253 317.562 263.844 317.562 C 279.435 317.562 292.111 300.772 293.123 276.742 C 287.219 277.019 283.785 259.363 283.785 259.363 Z" fill="rgb(75,101,161)" stroke-width="0.83" stroke="rgb(75,101,161)" stroke-linecap="round" stroke-linejoin="round"></path><path d="M 291.821 275.383 C 292.677 274.276 293.773 273.615 294.954 273.615 C 297.725 273.615 299.786 277.247 298.798 281.721 C 297.834 286.099 296.545 289.827 293.773 289.827 C 292.472 289.827 291.544 289.021 290.93 287.711" fill="rgb(75,101,161)"></path><path d="M 291.821 275.383 C 292.677 274.276 293.773 273.615 294.954 273.615 C 297.725 273.615 299.786 277.247 298.798 281.721 C 297.834 286.099 296.545 289.827 293.773 289.827 C 292.472 289.827 291.544 289.021 290.93 287.711" fill="transparent" stroke-width="0.83" stroke="rgb(75,101,161)" stroke-linecap="round" stroke-linejoin="round"></path><path d="M 261.446 291.74 C 261.446 291.74 263.314 294.289 259.736 296.202 C 256.157 298.114 253.302 298.078 252.386 295.889 C 251.47 293.7 255.446 275.467 255.446 275.467" fill="transparent" stroke-width="0.83" stroke="rgb(0,5,15)" stroke-linecap="round" stroke-linejoin="round"></path><path d="M 254.856 278.366 C 252.928 277.391 245.205 274.024 237.891 278.618 L 238.361 285.69 C 238.361 285.69 241.06 287.169 247.253 287.169 C 250.048 287.169 252 286.869 253.289 286.544 M 261.254 278.618 L 263.495 285.991 C 263.495 285.991 264.41 287.193 270.616 287.193 C 276.821 287.193 278.857 285.714 278.857 285.714 L 278.676 278.642 C 278.676 278.642 269.676 273.314 261.254 278.618 Z M 255.35 278.618 L 261.254 278.618 M 256.603 302.889 C 256.603 302.889 261.422 304.476 266.423 302.588 C 270.471 301.073 272.531 297.994 272.531 297.994 M 266.423 271.642 C 274.17 268.455 277.592 272.28 277.592 272.28 M 245.976 271.33 C 248.693 270.033 251.914 270.402 254.265 272.28" fill="transparent" stroke-width="0.83" stroke="rgb(0,5,15)" stroke-linecap="round" stroke-linejoin="round"></path><path d="M 269.507 277.019 C 270.23 277.019 270.736 278.161 270.736 279.628 C 270.736 281.096 270.134 282.238 269.435 282.238 C 268.736 282.238 268.218 281.036 268.218 279.628 C 268.242 278.209 268.796 277.019 269.507 277.019 Z M 250.265 276.694 C 250.964 276.694 251.482 277.836 251.482 279.304 C 251.482 280.771 250.88 281.914 250.181 281.914 C 249.482 281.914 248.964 280.711 248.964 279.304 C 249 277.896 249.566 276.694 250.265 276.694 Z" fill="rgb(0,5,15)"></path><path d="M 237.409 263.416 C 237.686 264.823 238.036 266.242 238.614 267.553 M 246.663 247.528 C 239.048 245.484 236.036 250.054 236.602 257.258" fill="transparent" stroke-width="0.83" stroke="rgb(41,53,78)" stroke-miterlimit="10"></path><path d="M 254.723 326.498 L 264.001 343.167 L 286.279 325.62 L 293.123 326.582 L 278.712 352.019 C 278.158 352.981 276.905 353.294 275.965 352.705 L 263.639 344.947 L 254.024 350.816 C 252.795 351.562 251.205 350.78 251.048 349.361 L 248.663 327.652 L 254.711 326.522 Z" fill="rgb(13,33,69)"></path><path d="M 253.904 326.389 L 264.001 343.167 L 286.665 325.307 L 293.496 326.377 L 278.712 352.007 C 278.158 352.969 276.905 353.282 275.965 352.693 L 263.639 344.935 L 254.024 350.804 C 252.795 351.55 251.205 350.768 251.048 349.349 L 248.663 327.64 Z" fill="rgb(0,0,0)" opacity="0.3"></path><path d="M 254.723 326.498 L 264.001 343.167 L 286.279 325.62 L 293.123 326.582 L 278.712 352.019 C 278.158 352.981 276.905 353.294 275.965 352.705 L 263.639 344.947 L 254.024 350.816 C 252.795 351.562 251.205 350.78 251.048 349.361 L 248.663 327.652 L 254.711 326.522 Z" fill="transparent" stroke-width="0.83" stroke="rgb(75,101,161)" stroke-linecap="round" stroke-linejoin="round"></path><path d="M 116.584 435.98 L 177.165 435.98 L 177.165 444.038 L 116.584 444.038 C 115.271 444.038 114.21 442.979 114.21 441.669 L 114.21 438.349 C 114.21 437.038 115.271 435.98 116.584 435.98 Z" fill="rgb(75,101,161)" stroke-width="0.83" stroke="rgb(75,101,161)" stroke-linecap="round" stroke-linejoin="round"></path><path d="M 229.288 444.05 L 177.153 444.05 L 177.153 435.992 L 229.397 439.431 C 230.264 439.492 230.939 440.213 230.939 441.079 L 230.939 442.414 C 230.939 443.328 230.204 444.062 229.288 444.062 Z" fill="rgb(0,5,15)" stroke-width="0.83" stroke="rgb(75,101,161)" stroke-linecap="round" stroke-linejoin="round"></path><path d="M 278.7 279.797 L 291.821 275.383 L 290.267 277.343" fill="transparent" stroke-width="0.83" stroke="rgb(0,5,15)" stroke-linecap="round" stroke-linejoin="round"></path><path d="M 362.68 294.855 C 362.68 294.855 347.583 248.851 385.549 245.616 C 423.515 242.393 427.985 277.704 431.467 295.408 C 434.19 309.251 460.119 334.568 440.046 353.462 C 419.093 373.187 368.078 366.608 365.15 338.561 C 362.222 310.514 364.885 304.765 362.668 294.855 Z" fill="rgb(0,7,20)" stroke-width="0.83" stroke="rgb(20,37,78)" stroke-linecap="round" stroke-linejoin="round"></path><path d="M 406.972 302.179 C 406.972 302.179 405.309 322.589 415.864 340.136 C 415.864 340.136 401.658 344.755 386.838 340.365 C 387.453 334.941 387.151 329.468 385.947 324.14 L 385.44 321.915 L 396.212 312.619 Z" fill="rgb(75,101,161)"></path><path d="M 380.898 317.574 C 382.862 328.554 384.657 330.948 393.983 328.987 C 400.887 327.532 406.779 317.189 407.116 309.672 C 406.586 305.102 406.622 299.401 406.622 299.401 L 396.212 312.619 L 380.898 317.562 Z" fill="rgb(57,81,134)"></path><path d="M 406.972 302.179 C 406.972 302.179 405.309 322.589 415.864 340.136 C 415.864 340.136 401.658 344.755 386.838 340.365 C 387.453 334.941 387.151 329.468 385.947 324.14 L 385.44 321.915 L 396.212 312.619 L 406.972 302.179 Z" fill="transparent" stroke-width="0.83" stroke="rgb(75,101,161)" stroke-linecap="round" stroke-linejoin="round"></path><path d="M 301.256 418.961 C 301.256 418.961 280.231 409.316 279.062 417.302 C 277.893 425.3 283.026 437.543 302.268 431.506 L 342.655 436.822 C 342.655 436.822 349.571 423.075 342.173 415.582 C 342.173 415.582 306.581 421.102 301.244 418.961 Z" fill="rgb(57,81,137)" stroke-width="0.83" stroke="rgb(50,72,121)" stroke-linecap="round" stroke-linejoin="round"></path><path d="M 268.869 427.573 C 268.869 427.573 265.543 428.643 265.049 430.832 C 264.567 433.033 263.483 436.148 264.76 436.16 C 266.037 436.16 267.591 431.782 267.591 431.782 L 270.832 430.94 L 268.869 427.561 Z" fill="rgb(0,5,15)" stroke-width="0.83" stroke="rgb(75,101,161)" stroke-linecap="round" stroke-linejoin="round"></path><path d="M 290.891 406.678 L 269.034 408.963 L 272.295 440.04 L 294.153 437.754 Z" fill="rgb(80,103,156)" stroke-width="0.83" stroke="rgb(75,101,161)" stroke-linecap="round" stroke-linejoin="round"></path><path d="M 269.026 408.962 L 265.766 409.303 L 269.028 440.379 L 272.287 440.039 Z" fill="rgb(100,129,196)" stroke-width="0.83" stroke="rgb(75,101,161)" stroke-linecap="round" stroke-linejoin="round"></path><path d="M 285.014 402.184 C 282.401 402.461 280.505 404.795 280.773 407.404 C 280.773 407.512 280.821 407.62 280.833 407.728 L 281.941 407.608 L 283.11 407.488 C 283.086 407.379 283.05 407.271 283.038 407.163 C 282.895 405.805 283.882 404.588 285.243 404.445 C 286.604 404.302 287.823 405.287 287.966 406.646 C 288.062 407.548 287.641 408.39 286.954 408.895 C 287.098 409.4 287.544 410.049 288.797 410.314 C 289.809 409.328 290.4 407.921 290.243 406.417 C 289.965 403.809 287.627 401.917 285.014 402.184 Z" fill="rgb(0,5,15)" stroke-width="0.83" stroke="rgb(75,101,161)" stroke-linecap="round" stroke-linejoin="round"></path><path d="M 273.146 415.414 L 280.664 414.62 M 273.507 418.829 L 288.122 417.302 M 273.869 422.257 L 281.17 421.499 M 274.23 425.685 L 286.436 424.41 M 274.592 429.112 L 281.893 428.343 M 274.941 432.528 L 290.978 430.856 M 275.303 435.956 L 282.821 435.174" fill="transparent" stroke-width="0.83" stroke="rgb(0,5,15)" stroke-linecap="round" stroke-linejoin="round"></path><path d="M 280.966 402.605 C 278.353 402.882 276.457 405.216 276.724 407.824 C 276.736 407.945 276.773 408.041 276.797 408.161 L 277.905 408.041 L 279.074 407.909 C 279.05 407.8 279.014 407.692 279.002 407.584 C 278.858 406.226 279.846 405.009 281.206 404.866 C 282.567 404.723 283.786 405.708 283.93 407.067 C 284.026 407.969 283.604 408.811 282.917 409.316 C 283.062 409.821 283.508 410.47 284.761 410.735 C 285.773 409.749 286.363 408.342 286.207 406.838 C 285.929 404.23 283.591 402.338 280.978 402.605 Z" fill="rgb(0,5,15)" stroke-width="0.83" stroke="rgb(75,101,161)" stroke-linecap="round" stroke-linejoin="round"></path><path d="M 276.917 403.026 C 274.305 403.303 272.408 405.637 272.676 408.245 C 272.676 408.354 272.724 408.462 272.736 408.57 L 273.845 408.45 L 275.013 408.33 C 274.989 408.221 274.953 408.113 274.941 408.005 C 274.798 406.647 275.785 405.43 277.146 405.287 C 278.507 405.144 279.726 406.129 279.869 407.488 C 279.965 408.39 279.544 409.232 278.857 409.737 C 279.002 410.242 279.447 410.891 280.7 411.156 C 281.713 410.17 282.303 408.763 282.146 407.259 C 281.869 404.651 279.531 402.759 276.917 403.026 Z" fill="rgb(0,5,15)" stroke-width="0.83" stroke="rgb(75,101,161)" stroke-linecap="round" stroke-linejoin="round"></path><path d="M 272.881 403.447 C 270.268 403.724 268.372 406.057 268.64 408.666 C 268.64 408.775 268.688 408.883 268.7 408.991 L 269.808 408.871 L 270.977 408.751 C 270.953 408.642 270.917 408.534 270.905 408.426 C 270.762 407.067 271.749 405.851 273.11 405.708 C 274.471 405.565 275.69 406.55 275.833 407.909 C 275.929 408.811 275.507 409.653 274.821 410.158 C 274.965 410.663 275.411 411.312 276.664 411.577 C 277.676 410.591 278.267 409.184 278.11 407.68 C 277.832 405.072 275.494 403.18 272.881 403.447 Z" fill="rgb(0,5,15)" stroke-width="0.83" stroke="rgb(75,101,161)" stroke-linecap="round" stroke-linejoin="round"></path><path d="M 266.868 408.859 C 266.725 407.5 267.713 406.283 269.073 406.141 C 270.434 405.998 271.653 406.983 271.796 408.342 C 271.893 409.244 271.471 410.086 270.784 410.591 C 270.929 411.096 271.375 411.745 272.628 412.01 C 273.64 411.024 274.23 409.616 274.074 408.113 C 273.796 405.505 271.458 403.613 268.844 403.88 C 266.232 404.157 264.336 406.49 264.603 409.099 C 264.724 410.254 265.278 411.264 266.061 412.01 L 265.772 409.304 L 266.941 409.184 C 266.917 409.075 266.88 408.967 266.868 408.859 Z M 263.242 417.651 C 263.435 418.071 263.663 418.504 263.953 418.961 C 263.953 418.961 263.097 421.499 264.82 423.856 C 264.82 423.856 264.917 427.284 266.133 427.825 C 267.35 428.367 269.29 429.028 269.254 428.078 C 269.218 427.128 268.652 424.229 266.459 423.592 C 266.459 423.592 268.977 424.097 268.688 422.69 C 268.399 421.283 267.941 419.286 266.386 418.709 L 265.555 418.348 C 265.555 418.348 267.543 418.709 267.387 417.206 C 267.23 415.702 267.049 413.946 265.905 413.513 C 265.639 413.417 265.338 413.333 265.025 413.249 C 263.338 412.852 262.254 415.498 263.23 417.651 Z" fill="rgb(0,5,15)" stroke-width="0.83" stroke="rgb(75,101,161)" stroke-linecap="round" stroke-linejoin="round"></path><path d="M 298.906 418.685 C 298.906 418.685 296.557 413.489 292.713 410.783 C 288.857 408.077 287.436 402.809 285.869 404.084 C 284.303 405.371 285.725 410.939 288.147 412.852 C 290.568 414.764 287.857 419.034 293.858 424.301" fill="rgb(57,81,137)"></path><path d="M 298.906 418.685 C 298.906 418.685 296.557 413.489 292.713 410.783 C 288.857 408.077 287.436 402.809 285.869 404.084 C 284.303 405.371 285.725 410.939 288.147 412.852 C 290.568 414.764 287.857 419.034 293.858 424.301" fill="transparent" stroke-width="0.83" stroke="rgb(75,101,161)" stroke-linecap="round" stroke-linejoin="round"></path><path d="M 440.443 433.863 C 439.913 437.134 439.347 440.526 438.744 444.05 L 356.114 444.05 C 355.981 442.943 356.764 440.718 357.511 436.846 C 348.306 439.961 332.245 435.126 332.245 435.126 C 334.245 429.87 332.86 416.52 332.86 416.52 L 342.234 414.536 C 342.234 414.536 346.125 373.86 349.089 362.206 C 352.234 349.842 369.44 336.348 427.31 340.329 C 427.31 340.329 454.01 339.824 458.155 357.491 C 462.023 373.968 441.552 433.105 440.443 433.863 Z" fill="rgb(0,5,15)"></path><path d="M 357.511 436.846 C 351.114 439.011 341.414 437.339 336.089 436.112 C 337.474 435.054 338.342 432.889 338.667 430.147 C 343.005 429.473 347.342 422.594 350.198 391.323 C 350.873 383.987 352.318 379.381 354.174 376.278 C 352.62 382.568 351.945 389.616 353.957 397.782 C 354.993 401.979 358.246 412.082 358.536 416.267 C 359.198 425.805 358.367 432.408 357.511 436.846 Z" fill="rgb(0,0,0)" opacity="0.2"></path><path d="M 440.431 433.875 C 439.913 437.146 439.347 440.538 438.744 444.05 L 356.114 444.05 C 357.596 439.528 361.234 417.999 356.102 404.914 C 355.897 404.385 373.85 396.856 385.874 399.935 C 436.841 412.984 419.286 370.938 433.84 363.288 L 421.286 412.443 L 414.43 414.62 C 429.274 415.534 424.985 437.748 424.985 437.748 C 431.949 438.878 437.684 435.775 440.431 433.875 Z" fill="rgb(0,0,0)" opacity="0.2"></path><path d="M 440.443 433.863 C 439.913 437.134 439.347 440.526 438.744 444.05 L 356.114 444.05 C 355.981 442.943 356.764 440.718 357.511 436.846 C 348.306 439.961 332.245 435.126 332.245 435.126 C 334.245 429.87 332.86 416.52 332.86 416.52 L 342.234 414.536 C 342.234 414.536 346.125 373.86 349.089 362.206 C 352.234 349.842 369.44 336.348 427.31 340.329 C 427.31 340.329 454.01 339.824 458.155 357.491 C 462.023 373.968 441.552 433.105 440.443 433.863 Z" fill="transparent" stroke-width="0.83" stroke="rgb(75,101,161)" stroke-linecap="round" stroke-linejoin="round"></path><path d="M 334.366 414.223 C 334.366 414.223 337.498 415.895 338.523 423.243 C 339.547 430.592 337.968 436.918 333.884 436.822 C 329.799 436.725 329.088 435.126 329.908 433.61 C 330.727 432.095 332.534 430.062 331.173 423.772 C 329.462 415.895 325.944 416.604 325.944 416.604 C 325.944 416.604 330.643 412.118 334.366 414.211 Z" fill="rgb(0,5,15)" stroke-width="0.83" stroke="rgb(75,101,161)" stroke-linecap="round" stroke-linejoin="round"></path><path d="M 338.667 430.147 C 338.342 432.889 337.474 435.054 336.089 436.112 C 335.462 436.593 334.727 436.846 333.884 436.822 C 329.787 436.725 329.076 435.126 329.908 433.61 C 330.727 432.107 332.534 430.062 331.173 423.772 C 329.462 415.895 325.944 416.616 325.944 416.616 C 325.944 416.616 330.643 412.13 334.366 414.223 C 334.366 414.223 337.498 415.895 338.523 423.243 C 338.86 425.733 338.908 428.102 338.667 430.147 Z" fill="rgb(0,0,0)" opacity="0.2"></path><path d="M 413.08 325.62 C 413.08 325.62 392.308 331.91 382.85 328.554 L 380.886 341.147 C 380.886 341.147 390.067 349.145 419.526 339.319 L 413.068 325.632 Z" fill="rgb(0,5,15)" stroke-width="0.83" stroke="rgb(75,101,161)" stroke-linecap="round" stroke-linejoin="round"></path><path d="M 339.27 410.555 C 341.74 418.577 343.944 425.023 341.764 425.697 C 339.583 426.37 337.788 419.791 335.318 411.769 C 332.848 403.747 330.643 397.301 332.823 396.627 C 335.004 395.954 336.8 402.533 339.27 410.555 Z" fill="rgb(100,129,196)" stroke-width="0.83" stroke="rgb(75,101,161)" stroke-linecap="round" stroke-linejoin="round"></path><path d="M 335.004 410.747 L 338.956 409.532 C 338.378 407.632 337.836 405.84 337.306 404.228 L 333.378 405.431 C 333.86 407.067 334.414 408.847 335.004 410.747 Z" fill="rgb(75,101,161)"></path><path d="M 334.643 400.428 C 334.643 400.428 336.486 396.736 338.185 399.345 C 339.884 401.955 340.233 409.881 341.426 409.893 M 359.15 361.136 C 357.644 365.742 355.56 370.709 354.174 376.278 C 352.62 382.568 351.945 389.616 353.957 397.782 C 354.993 401.979 358.246 412.082 358.536 416.267 C 359.198 425.805 358.367 432.408 357.511 436.846 C 356.764 440.718 355.981 442.943 356.114 444.05" fill="transparent" stroke-width="0.83" stroke="rgb(75,101,161)" stroke-linecap="round" stroke-linejoin="round"></path><path d="M 410.285 415.991 C 410.285 415.991 376.669 420.573 365.343 420.838 C 363.596 420.874 358.403 420.236 358.403 420.236 L 350.342 414.86 C 350.342 414.86 344.125 413.946 341.089 414.644 L 337.619 419.166 C 337.619 419.166 333.293 420.561 335.763 423.832 C 335.763 423.832 334.812 426.346 336.908 428.246 C 336.908 428.246 337.101 431.097 339.004 432.239 C 339.004 432.239 339.39 434.897 341.474 435.655 C 343.571 436.413 356.692 434.32 360.692 433.189 C 364.692 432.047 403.502 438.133 418.719 437.748 C 418.719 437.748 431.756 422.558 410.297 416.003 Z" fill="rgb(75,101,161)" stroke-width="0.83" stroke="rgb(55,82,145)" stroke-linecap="round" stroke-linejoin="round"></path><path d="M 410.815 288.937 C 410.815 288.937 401.947 292.389 396.694 282.852 C 394.417 278.714 389.814 270.079 389.814 270.079 C 388.501 273.459 390.115 278.618 390.115 278.618 C 387.115 277.307 381.296 276.994 381.296 276.994 C 379.235 273.543 378.633 265.737 378.633 265.737 C 375.777 270.5 376.609 277.331 376.609 277.331 C 370.512 278.173 366.741 280.254 363.958 282.683 C 364.717 285.75 364.994 290.537 364.741 300.471 C 364.415 313.46 370.657 317.008 376.753 321.867 C 382.838 326.726 399.538 329.24 405.297 303.851 C 405.297 303.851 417.37 299.365 411.466 289.948 C 411.261 289.635 411.056 289.298 410.827 288.949 Z" fill="rgb(75,101,161)" stroke-width="0.83" stroke="rgb(75,101,161)" stroke-linecap="round" stroke-linejoin="round"></path><path d="M 400.935 273.362 C 404.731 281.132 411.345 287.109 419.816 289.31 M 397.766 263.741 C 398.019 265.316 398.429 266.868 398.923 268.395 M 403.791 264.318 C 403.791 264.318 410.634 277.355 421.334 277.668 M 424.768 297.476 C 424.768 297.476 442.178 325.62 442.178 341.989 M 420.165 304.981 C 420.165 304.981 424.479 320.677 431.395 328.554 M 365.452 264.174 C 364.97 266.29 364.62 268.624 364.427 271.209 M 379.693 249.429 C 379.693 249.429 371.596 250.944 366.295 260.481 M 369.44 322.3 C 369.44 322.3 369.175 334.929 375.621 342.013" fill="transparent" stroke-width="0.83" stroke="rgba(85,102,141,0.48)" stroke-miterlimit="10"></path><path d="M 380.898 283.657 C 389.67 281.938 393.525 286.4 393.525 286.4 M 366.259 287.35 C 368.212 285.367 370.909 284.293 373.693 284.391 M 386.621 313.051 C 389.332 311.5 390.838 307.495 390.838 307.495 L 390.272 307.796 C 386.741 309.693 382.889 310.925 378.91 311.428 C 381.452 314.098 384.826 314.086 386.621 313.051 Z M 375.862 304.693 C 374.717 304.548 371.452 303.009 371.175 300.796 C 371.09 300.134 371.572 299.533 372.283 299.004 C 375.115 296.935 376.814 293.664 376.561 290.176 C 376.548 289.924 376.536 289.779 376.536 289.779" fill="transparent" stroke-width="0.83" stroke="rgb(0,5,15)" stroke-linecap="round" stroke-linejoin="round"></path><path d="M 387.103 287.169 C 387.935 287.073 388.79 288.444 389.007 290.236 C 389.224 292.028 388.73 293.568 387.898 293.664 C 387.067 293.772 386.212 292.389 385.995 290.609 C 385.778 288.805 386.272 287.278 387.103 287.169 Z M 372.621 292.353 C 372.837 294.109 372.356 295.624 371.536 295.721 C 370.717 295.817 369.886 294.482 369.669 292.714 C 369.452 290.958 369.934 289.442 370.753 289.346 C 371.572 289.25 372.404 290.585 372.621 292.353 Z" fill="rgb(0,5,15)"></path><path d="M 440.431 433.875 C 437.684 435.775 431.949 438.878 424.985 437.748 C 424.985 437.748 429.262 415.534 414.43 414.62 L 421.274 412.443 L 433.828 363.288" fill="transparent" stroke-width="0.83" stroke="rgb(75,101,161)" stroke-linecap="round" stroke-linejoin="round"></path><path d="M 424.985 412.443 C 424.985 412.443 432.937 414.536 435.166 421.367 M 392.537 333.329 C 400.092 333.329 407.586 331.633 414.466 328.542 M 382.296 332.162 C 383.995 332.619 385.73 332.896 387.477 333.076 M 416.165 346.258 C 418.445 345.452 420.695 344.565 422.912 343.6 M 378.958 346.439 C 378.958 346.439 387.043 354.1 408.43 348.627 M 385.947 384.504 C 385.947 384.504 387.212 403.002 400.935 409.881" fill="transparent" stroke-width="0.83" stroke="rgb(75,101,161)" stroke-linecap="round" stroke-linejoin="round"></path><path d="M 409.948 416.279 C 409.948 416.279 412.659 410.338 420.719 413.273 C 420.719 413.273 428.346 415.895 430.635 423.724 C 432.925 431.554 430.069 438.541 424.503 438.818 C 418.936 439.107 417.924 438.674 418.864 436.966 C 419.804 435.258 421.731 430.616 419.298 424.807 C 415.84 416.544 409.96 416.279 409.96 416.279 Z" fill="rgb(9,23,48)"></path><path d="M 409.948 416.279 C 409.948 416.279 412.659 410.338 420.719 413.273 C 420.719 413.273 428.346 415.895 430.635 423.724 C 432.925 431.554 430.069 438.541 424.503 438.818 C 418.936 439.107 417.924 438.674 418.864 436.966 C 419.804 435.258 421.731 430.616 419.298 424.807 C 415.84 416.544 409.96 416.279 409.96 416.279 Z" fill="rgb(9,23,48)" opacity="0.2"></path><path d="M 409.948 416.279 C 409.948 416.279 412.659 410.338 420.719 413.273 C 420.719 413.273 428.346 415.895 430.635 423.724 C 432.925 431.554 430.069 438.541 424.503 438.818 C 418.936 439.107 417.924 438.674 418.864 436.966 C 419.804 435.258 421.731 430.616 419.298 424.807 C 415.84 416.544 409.96 416.279 409.96 416.279 Z" fill="transparent" stroke-width="0.83" stroke="rgb(75,101,161)" stroke-linecap="round" stroke-linejoin="round"></path><path d="M 50.906 404.228 L 56.605 404.228" fill="transparent" stroke-width="0.83" stroke="rgb(38,50,56)" stroke-miterlimit="10"></path><path d="M 28.616 404.228 L 45.123 404.228" fill="rgb(255,255,255)"></path><path d="M 28.616 404.228 L 45.123 404.228" fill="transparent" stroke-width="0.83" stroke="rgb(38,50,56)" stroke-miterlimit="10"></path><path d="M 208.95 411.384 L 197.986 322.264 C 197.636 319.438 195.058 317.141 192.226 317.141 L 179.647 317.141 L 194.178 416.52 L 204.456 416.52 C 207.287 416.52 209.311 414.223 208.962 411.396 Z" fill="rgb(75,101,161)" stroke-width="0.83" stroke="rgb(38,50,56)" stroke-linecap="round" stroke-linejoin="round"></path><path d="M 201.733 416.508 L 75.389 416.508 C 72.558 416.508 69.967 414.211 69.63 411.384 L 58.666 322.264 C 58.316 319.438 60.328 317.141 63.172 317.141 L 189.515 317.141 C 192.347 317.141 194.937 319.438 195.275 322.264 L 206.239 411.384 C 206.588 414.211 204.576 416.508 201.733 416.508 Z" fill="rgb(0,8,22)"></path><path d="M 201.733 416.508 L 75.389 416.508 C 72.558 416.508 69.967 414.211 69.63 411.384 L 58.666 322.264 C 58.316 319.438 60.328 317.141 63.172 317.141 L 189.515 317.141 C 192.347 317.141 194.937 319.438 195.275 322.264 L 206.239 411.384 C 206.588 414.211 204.576 416.508 201.733 416.508 Z" fill="transparent" stroke-width="0.83" stroke="rgb(80,103,156)" stroke-linecap="round" stroke-linejoin="round"></path><path d="M 142.826 436.761 L 147.875 379.356 C 147.995 377.973 146.911 376.795 145.525 376.795 L 113.632 376.795 C 112.403 376.795 111.379 377.733 111.283 378.948 L 105.788 441.476 C 105.668 442.859 106.752 444.038 108.138 444.038 L 171.322 444.038 C 172.623 444.038 173.683 442.979 173.683 441.681 C 173.683 440.382 172.623 439.323 171.322 439.323 L 145.2 439.323 C 143.814 439.323 142.718 438.133 142.85 436.761 Z" fill="rgb(20,32,61)" stroke-width="0.83" stroke="rgb(13,25,54)" stroke-linecap="round" stroke-linejoin="round"></path><path d="M 173.671 441.693 C 173.671 440.394 172.611 439.335 171.31 439.335 L 145.188 439.335 C 143.802 439.335 142.706 438.145 142.838 436.774 L 147.887 379.369 C 148.007 377.997 146.923 376.807 145.537 376.807 C 144.32 376.807 143.296 377.745 143.188 378.96 L 137.693 441.488 C 137.573 442.871 138.657 444.05 140.043 444.05 L 171.31 444.05 C 172.611 444.05 173.671 442.991 173.671 441.693 Z" fill="rgb(75,101,161)" stroke-width="0.83" stroke="rgb(38,50,56)" stroke-linecap="round" stroke-linejoin="round"></path><path d="M 28.809 444.05 L 480.638 444.05" fill="transparent" stroke-width="0.83" stroke="rgb(38,50,56)" stroke-linecap="round" stroke-linejoin="round"></path><path d="M 450.408 225.639 L 426.647 225.639 C 423.563 225.639 421.069 228.129 421.069 231.208 L 421.069 242.741 C 421.069 245.82 423.563 248.31 426.647 248.31 L 432.852 248.31 L 434.66 258.954 L 444.178 248.31 L 450.383 248.31 C 453.468 248.31 455.962 245.82 455.962 242.741 L 455.962 231.208 C 455.962 228.129 453.468 225.639 450.383 225.639 Z M 413.996 191.518 L 390.236 191.518 C 387.151 191.518 384.657 194.008 384.657 197.087 L 384.657 208.621 C 384.657 211.7 387.151 214.189 390.236 214.189 L 396.441 214.189 L 401.14 224.833 L 407.767 214.189 L 413.972 214.189 C 417.056 214.189 419.551 211.7 419.551 208.621 L 419.551 197.087 C 419.551 194.008 417.056 191.518 413.972 191.518 Z" fill="rgb(0,5,15)" stroke-width="0.83" stroke="rgb(80,103,156)" stroke-linecap="round" stroke-linejoin="round"></path></g></svg>