<svg width="247" height="212" fill="none" xmlns="http://www.w3.org/2000/svg"><path d="M190.77 118.364H67.676v51.843H190.77v-51.843z" fill="#00050F" stroke="#4B65A2" stroke-width=".534" stroke-linecap="round" stroke-linejoin="round"/><path d="M81.828 121.497h-11.58v6.409h11.58v-6.409zm106.093 31.255h-18.24v6.409h18.24v-6.409zm0-23.245h-11.26v6.409h11.26v-6.409zM81.828 144.843h-11.58v6.409h11.58v-6.409zm-2.204-7.716h-9.376v6.409h9.376v-6.409zm-2.967-7.817h-6.409v6.409h6.409v-6.409zm8.186 0h-6.409v6.409h6.41v-6.409zm8.181 0h-6.409v6.409h6.41v-6.409zm8.181 0h-6.41v6.409h6.41v-6.409zm8.186 0h-6.409v6.409h6.409v-6.409zm8.18 0h-6.409v6.409h6.409v-6.409zm8.181 0h-6.409v6.409h6.409v-6.409zm8.186 0h-6.409v6.409h6.409v-6.409zm8.181 0h-6.409v6.409h6.409v-6.409zm8.18 0h-6.408v6.409h6.408v-6.409zm8.187 0h-6.409v6.409h6.409v-6.409zm8.18 0h-6.409v6.409h6.409v-6.409zm8.186 0h-6.409v6.409h6.409v-6.409zm-98.195 31.345h-6.409v6.409h6.409v-6.409zm8.186 0h-6.409v6.409h6.41v-6.409zm8.181 0h-6.409v6.409h6.41v-6.409zm9.595 0h-7.823v6.409h7.823v-6.409zm40.914 0h-39.142v6.409h39.142v-6.409zm19.568 0h-6.409v6.409h6.409v-6.409zm8.181 0h-6.409v6.409h6.409v-6.409zm8.197 0h-6.409v6.409h6.409v-6.409zm-24.393 0h-9.952v6.409h9.952v-6.409zm32.835 0h-6.409v6.409h6.409v-6.409zM87.853 137.127h-6.409v6.409h6.409v-6.409zm8.181 0h-6.41v6.409h6.41v-6.409zm8.185 0H97.81v6.409h6.409v-6.409zm8.181 0h-6.409v6.409h6.409v-6.409zm8.181 0h-6.409v6.409h6.409v-6.409zm8.186 0h-6.409v6.409h6.409v-6.409zm8.181 0h-6.409v6.409h6.409v-6.409zm8.186 0h-6.409v6.409h6.409v-6.409zm8.18 0h-6.409v6.409h6.409v-6.409zm8.181 0h-6.409v6.409h6.409v-6.409zm8.186 0h-6.409v6.409h6.409v-6.409zm8.181 0h-6.409v6.409h6.409v-6.409zm10.059 0v14.222h-6.409v-7.813h-1.879v-6.409h8.288zm-98.19 7.813h-6.409v6.409h6.41v-6.409zm8.181 0h-6.409v6.409h6.409v-6.409zm8.181 0h-6.41v6.409h6.41v-6.409zm8.186 0h-6.409v6.409h6.409v-6.409zm8.18 0h-6.409v6.409h6.409v-6.409zm8.186 0h-6.409v6.409h6.409v-6.409zm8.181 0h-6.409v6.409h6.409v-6.409zm8.181 0h-6.409v6.409h6.409v-6.409zm8.186 0h-6.409v6.409h6.409v-6.409zm8.18 0h-6.409v6.409h6.409v-6.409zm8.181 0h-6.409v6.409h6.409v-6.409zm8.186 0h-6.409v6.409h6.409v-6.409zm-93.488 7.812h-6.409v6.409h6.41v-6.409zm8.181 0h-6.41v6.409h6.41v-6.409zm8.186 0h-6.41v6.409h6.41v-6.409zm8.181 0h-6.409v6.409h6.409v-6.409zm8.18 0h-6.409v6.409h6.409v-6.409zm8.186 0h-6.409v6.409h6.409v-6.409zm8.181 0h-6.409v6.409h6.409v-6.409zm8.186 0h-6.409v6.409h6.409v-6.409zm8.18 0h-6.409v6.409h6.409v-6.409zm8.181 0h-6.409v6.409h6.409v-6.409zm8.186 0h-6.409v6.409h6.409v-6.409zm-78.349-30.866h-6.409v6.409h6.41v-6.409zm8.181 0h-6.409v6.409h6.409v-6.409zm8.181 0h-6.41v6.409h6.41v-6.409zm8.186 0h-6.409v6.409h6.409v-6.409zm8.18 0h-6.409v6.409h6.409v-6.409zm8.186 0h-6.409v6.409h6.409v-6.409zm8.181 0h-6.409v6.409h6.409v-6.409zm8.181 0h-6.409v6.409h6.409v-6.409zm8.186 0h-6.409v6.409h6.409v-6.409zm8.18 0h-6.409v6.409h6.409v-6.409zm8.181 0h-6.409v6.409h6.409v-6.409zm8.186 0h-6.409v6.409h6.409v-6.409zm8.181 0h-6.409v6.409h6.409v-6.409zM78.013 152.752h-7.765v6.409h7.764v-6.409z" fill="#00050F" stroke="#4B65A2" stroke-width=".534" stroke-miterlimit="10"/><path d="m67.676 118.695 2.572-.859H189.1l1.692.849-123.116.01z" fill="#4B65A2"/><path opacity=".2" d="m155.54 207.605-2.503-15.076a12.318 12.318 0 0 0-3.389-5.902c-4.979-4.803-11.558-9.733-11.841-16.03-.432-9.622-1.932-9.334-1.772-11.708.005-.086.747-1.148 1.713-3.522.31-.769.518-1.911.726-2.85a1.944 1.944 0 0 1 2.156-1.521c.672.091 1.334.395 1.809.849.912.885 1.318 2.193 1.355 3.468.038 1.27-.245 2.53-.533 3.768.896 2.006 1.318 4.445 1.606 6.622.571-1.761 1.003-3.538 1.574-5.293.117-.064.075-.203.187-.267-.806-1.729-.123-1.633-1.718-5.438-2.685-6.404-5.678-12.578-7.818-20.625-.171-.625-.16-1.649.048-2.263.774-2.3 3.143-1.771 4.178-.432.278.352.48.747.64 1.163 1.094 2.866 3.426 7.284 5.107 9.846l5.812 8.858s2.022-1.659 2.332-2.401h.005c.304-.752.454-6.767.454-6.767s-.459 1.126-1.479 1.062c-.736-.053-2.23.374-3.292-.821-.87-.977-.87-2.445-.096-3.49l2.631-3.554s1.766-1.548 4.13-.497c2.359 1.057 4.648 3.255 4.648 3.255s2.188-.112 4.045.78c1.862.896 3.816 3.468 3.816 3.468s2.171.134 3.148.843c.246.176 3.559 5.337 2.364 9.355-.71 2.396-1.147 5.875-1.467 6.809l-1.628 23.528 3.282 15.487-7.018 3.911a50.385 50.385 0 0 1-8.073 3.613l-5.139 1.772z" fill="#00050F"/><path d="m175.466 180.112.064-23.587c.256-.955.464-4.456 1.008-6.895.924-4.087-2.721-9.018-2.983-9.178-1.024-.64-3.196-.63-3.196-.63s-2.119-2.439-4.04-3.207c-1.91-.763-4.088-.507-4.088-.507s-2.428-2.044-4.856-2.94c-2.428-.891-4.087.768-4.087.768l-2.386 3.72c-.704 1.094-.603 2.561.326 3.479 1.142 1.126 2.604.598 3.34.598 1.025 0 1.404-1.153 1.404-1.153s.251 6.009 0 6.772h-.005c-.262.768-2.172 2.556-2.172 2.556l-6.383-8.453c-1.851-2.444-4.472-6.697-5.752-9.483a4.298 4.298 0 0 0-.721-1.12c-1.12-1.27-3.516-1.639-4.141.709-.165.63-.106 1.649.102 2.263 2.673 7.887 6.067 13.848 9.168 20.06 1.846 3.687 1.158 3.644 2.075 5.309-.106.075-.058.214-.17.278-.454 1.793-.763 3.591-1.217 5.384-.432-2.15-1.014-4.557-2.044-6.5.208-1.254.406-2.529.278-3.799-.118-1.27-.609-2.546-1.58-3.367-.502-.422-1.185-.678-1.862-.726-1.009-.075-1.9.662-2.05 1.66-.144.949-.272 2.102-.539 2.887-.805 2.433-1.472 3.538-1.472 3.623 0 2.38 1.472 1.99 2.545 11.569.833 7.455 10.438 12.386 15.668 17.77l5.571 17.53c6.468-2.593 12.658-5.912 18.597-9.765l-4.424-15.641.022.016z" fill="#00050F"/><path d="M172.734 148.061c.282-.693.619-1.408 1.227-1.851.608-.443 1.558-.497 2.044.074a98.126 98.126 0 0 0-1.27-3.644c-.342-.918-.726-1.873-1.484-2.498-.758-.624-2.006-.752-2.657-.016.464 2.786.512 5.635.149 8.432-.197 1.515-.453 3.255.571 4.397.283.229.769-.182.592-.496-.085-.15-.384-.16-.517-.144a27.06 27.06 0 0 1 1.35-4.248l-.005-.006z" fill="#00050F"/><path d="M172.734 148.061c.282-.693.619-1.408 1.227-1.851.608-.443 1.558-.497 2.044.074a98.126 98.126 0 0 0-1.27-3.644c-.342-.918-.726-1.873-1.484-2.498-.758-.624-2.006-.752-2.657-.016.464 2.786.512 5.635.149 8.432-.197 1.515-.453 3.255.571 4.397.283.229.769-.182.592-.496-.085-.15-.384-.16-.517-.144a27.06 27.06 0 0 1 1.35-4.248l-.005-.006z" fill="#00050F"/><path opacity=".5" d="M172.734 148.061c.282-.693.619-1.408 1.227-1.851.608-.443 1.558-.497 2.044.074a98.126 98.126 0 0 0-1.27-3.644c-.342-.918-.726-1.873-1.484-2.498-.758-.624-2.006-.752-2.657-.016.464 2.786.512 5.635.149 8.432-.197 1.515-.453 3.255.571 4.397.283.229.769-.182.592-.496-.085-.15-.384-.16-.517-.144a27.06 27.06 0 0 1 1.35-4.248l-.005-.006z" fill="#00050F"/><path d="M164.217 145.526c.043 1.025.032 2.066.288 3.064.251.997.806 1.963 1.708 2.465-.528-1.99-.246-4.093.048-6.132l.528-3.714c.059-.432.128-.88.379-1.232.251-.353.731-.593 1.126-.411-.528.315-1.211-.107-1.531-.63-.321-.523-.443-1.158-.822-1.638-.715-.918-2.242-1.121-3.293-.875.32 3.047 1.452 5.96 1.574 9.109l-.005-.006z" fill="#00050F"/><path d="M164.217 145.526c.043 1.025.032 2.066.288 3.064.251.997.806 1.963 1.708 2.465-.528-1.99-.246-4.093.048-6.132l.528-3.714c.059-.432.128-.88.379-1.232.251-.353.731-.593 1.126-.411-.528.315-1.211-.107-1.531-.63-.321-.523-.443-1.158-.822-1.638-.715-.918-2.242-1.121-3.293-.875.32 3.047 1.452 5.96 1.574 9.109l-.005-.006z" fill="#00050F"/><path d="M164.217 145.527c.043 1.024.032 2.065.288 3.063.251.998.806 1.964 1.708 2.465-.528-1.99-.246-4.093.048-6.131l.528-3.714c.059-.433.128-.881.379-1.233.251-.352.731-.592 1.126-.411-.528.315-1.211-.107-1.531-.63-.321-.523-.443-1.158-.822-1.638-.715-.918-2.242-1.121-3.293-.875.32 3.047 1.452 5.961 1.574 9.109l-.005-.005z" fill="#00050F" opacity=".5"/><path d="M155.508 137.303c-.347-.251-.459-.709-.56-1.12-.102-.417-.251-.87-.625-1.078-1.638 1.04-.741 4.087-2.401 5.096-.32.197-.731.304-.907.635-.16.299-.059.694.176.939.235.246.571.368.907.432 1.318.235 2.706-.437 3.496-1.52.651-.892 1.099-2.338.779-3.4-.251.139-.609.192-.854.011l-.011.005zm-17.039 19.947c-.032.113-.053.257.043.331.139.118.325-.064.432-.213.688-.977 2.049-1.42 3.181-1.03.432-.011.576-.667.293-.993-.283-.325-.763-.384-1.195-.384-.433 0-.897.022-1.26-.208-.448-.283-.624-.854-.512-1.345-.288 1.286-.651 2.562-.982 3.842z" fill="#00050F"/><path d="M155.508 137.303c-.347-.251-.459-.709-.56-1.12-.102-.417-.251-.87-.625-1.078-1.638 1.04-.741 4.087-2.401 5.096-.32.197-.731.304-.907.635-.16.299-.059.694.176.939.235.246.571.368.907.432 1.318.235 2.706-.437 3.496-1.52.651-.892 1.099-2.338.779-3.4-.251.139-.609.192-.854.011l-.011.005zm-17.039 19.947c-.032.113-.053.257.043.331.139.118.325-.064.432-.213.688-.977 2.049-1.42 3.181-1.03.432-.011.576-.667.293-.993-.283-.325-.763-.384-1.195-.384-.433 0-.897.022-1.26-.208-.448-.283-.624-.854-.512-1.345-.288 1.286-.651 2.562-.982 3.842z" opacity=".5" fill="#00050F"/><path d="M160.194 136.898c-.934-.123-1.922-.15-2.733-.625-1.019-.597-1.713-1.873-2.892-1.921-1.046-.048-1.825.913-2.423 1.777-.069-1.302.891-2.519 2.103-3.004 1.211-.486 2.604-.331 3.815.149 1.212.48 2.279 1.265 3.314 2.06.416.32.838.651 1.121 1.094 1.318 2.071-1.473.576-2.295.47h-.01z" fill="#00050F"/><path opacity=".5" d="M160.194 136.898c-.934-.123-1.922-.15-2.733-.625-1.019-.597-1.713-1.873-2.892-1.921-1.046-.048-1.825.913-2.423 1.777-.069-1.302.891-2.519 2.103-3.004 1.211-.486 2.604-.331 3.815.149 1.212.48 2.279 1.265 3.314 2.06.416.32.838.651 1.121 1.094 1.318 2.071-1.473.576-2.295.47h-.01z" fill="#00050F"/><path d="M143.506 167.204c.064-.118.118-.235.176-.358a.405.405 0 0 0-.176.358z" fill="#00050F"/><path d="M145.091 158.938c-.106-1.318.08-2.636.027-3.954-.053-1.318-.4-2.706-1.361-3.613-1.377-1.297-5.149-.635-3.885 1.83.353.683 1.254 1.036 1.959.731.704-.304 1.051-1.264.667-1.926 1.526 2.311 1.387 5.598-.326 7.775 1.953 1.692 2.578 4.728 1.505 7.071.23-.176.63-.198.875-.011.374.283.497.774.683 1.206.182.432.534.881 1.004.849.64-1.569.427-3.362.01-5.006-.416-1.644-1.03-3.255-1.163-4.947l.005-.005zm13.805-24.746c-.736-.56-1.606-.944-2.524-1.062l2.524 1.062zm6.276 16.698c-.203-.907-.619-1.75-.87-2.647-.581-2.086-.219-4.317-.485-6.467a11.163 11.163 0 0 0-3.965-7.183l-.956-.406c.913.699 1.617 1.687 1.922 2.797.736 2.545.971 5.208 1.296 7.844.507 4.061 1.249 8.09 2.22 12.066.635-1.948 1.281-4.008.833-6.009l.005.005zm-10.16-9.494c.661-.523 1.014-1.355 1.126-2.193.101-.747.026-1.505-.059-2.252-.064.32-.48.593-.838.507-.454-.107-.752-.528-1.009-.918-.064.224-.128.449-.197.673l-.08-.363-.251.32c.379 1.073.742 2.316.16 3.287-.283.47-.747.801-1.2 1.11.688.48 1.691.347 2.353-.176l-.005.005z" fill="#00050F"/><path d="m156.047 136.684.032.267a.395.395 0 0 0-.032-.267zm-2.791 10.801c-1.873-3.676-3.746-7.353-5.801-10.929-1.201-2.091-2.476-4.157-4.082-5.955-.71-.8-2.754-2.647-3.88-1.43-.752.811.235 2.289-.688 3.164.213.011 1.254-.101 1.366.038a16.239 16.239 0 0 1 3.581 10.347c.752-.592 1.782.229 2.374.987a175.922 175.922 0 0 1 10.123 14.462c-.608-2.204-.619-4.541-1.275-6.735-.411-1.376-1.067-2.668-1.718-3.949zm21.74 8.96c.897-2.39 1.591-4.845 1.671-7.385.069-2.311-.454-4.707-1.676-6.681-.31-.502-1.59-2.546-2.295-2.38-1.254.298.395 2.476.678 3.02 1.083 2.054 2.193 4.226 2.124 6.548-.053 1.787-.806 3.468-1.409 5.155-.421 1.174-.763 2.428-.752 3.66-.091.139-.176.278-.278.411-.832 1.089-2.001 1.991-3.351 2.21.518-1.591 1.03-3.186 1.548-4.777.181-.565.25-1.344-.081-1.739.107-.219.171-.448.166-.694-.016-.437-.267-.827-.454-1.227-.715-1.537-.469-3.325-.299-5.011.214-2.081.294-4.221-.314-6.222-.609-2.002-2.023-3.859-4.008-4.52.171.181.342.368.507.549l-.672-.491c.416.865.832 1.735 1.248 2.605-.154.218-.309.437-.459.656.689-.363 1.569.16 1.884.875.315.71.23 1.526.155 2.3a45.964 45.964 0 0 0 .63 12.946c-.081.993-.251 2.001-.769 2.85-.56.912-1.606 1.601-2.668 1.446.235-1.025-.16-2.236-1.03-2.844-1.078 1.494-.443 3.815-.277 5.517.25 2.578.661 5.139 1.238 7.664a24.767 24.767 0 0 1 1.36-6.425c.582 2.107 1.164 4.215 1.74 6.323.016-.592.043-1.206.331-1.723.288-.518.923-.892 1.473-.684.453.171.699.651.88 1.1a19.613 19.613 0 0 1 1.073 11.542c.715.401 1.665-.085 2.06-.8.395-.715.395-1.58.379-2.401-.123-7.119-.251-14.238-.374-21.357l.021-.016zm-18.09 2.258c-.342.598 1.057 2.978 1.286 3.543 1.174 2.871 2.353 5.742 3.527 8.613a40.496 40.496 0 0 0-2.737-11.03c-.24-.598-1.404-2.316-2.081-1.126h.005zm1.825-15.22c-.203.305-.486.678-.832.571-.326-.101-.379-.528-.374-.864l.096-5.993c-1.612 1.158-1.403 2.674-1.521 4.397-.064.998.224 5.764-.459 6.345a17.783 17.783 0 0 0 3.971-4.835c-.278-.229-.684.081-.881.379z" fill="#00050F"/><g opacity=".5" fill="#00050F"><path d="M143.506 167.204c.064-.118.118-.235.176-.358a.405.405 0 0 0-.176.358z"/><path d="M145.091 158.938c-.106-1.318.08-2.636.027-3.954-.053-1.318-.4-2.706-1.361-3.613-1.377-1.297-5.149-.635-3.885 1.83.353.683 1.254 1.036 1.959.731.704-.304 1.051-1.264.667-1.926 1.526 2.311 1.387 5.598-.326 7.775 1.953 1.692 2.578 4.728 1.505 7.071.23-.176.63-.198.875-.011.374.283.497.774.683 1.206.182.432.534.881 1.004.849.64-1.569.427-3.362.01-5.006-.416-1.644-1.03-3.255-1.163-4.947l.005-.005zm13.805-24.746c-.736-.56-1.606-.944-2.524-1.062l2.524 1.062zm6.276 16.698c-.203-.907-.619-1.75-.87-2.647-.581-2.086-.219-4.317-.485-6.467a11.163 11.163 0 0 0-3.965-7.183l-.956-.406c.913.699 1.617 1.687 1.922 2.797.736 2.545.971 5.208 1.296 7.844.507 4.061 1.249 8.09 2.22 12.066.635-1.948 1.281-4.008.833-6.009l.005.005zm-10.16-9.494c.661-.523 1.014-1.355 1.126-2.193.101-.747.026-1.505-.059-2.252-.064.32-.48.593-.838.507-.454-.107-.752-.528-1.009-.918-.064.224-.128.449-.197.673l-.08-.363-.251.32c.379 1.073.742 2.316.16 3.287-.283.47-.747.801-1.2 1.11.688.48 1.691.347 2.353-.176l-.005.005z"/><path d="m156.047 136.684.032.267a.395.395 0 0 0-.032-.267zm-2.791 10.801c-1.873-3.676-3.746-7.353-5.801-10.929-1.201-2.091-2.476-4.157-4.082-5.955-.71-.8-2.754-2.647-3.88-1.43-.752.811.235 2.289-.688 3.164.213.011 1.254-.101 1.366.038a16.239 16.239 0 0 1 3.581 10.347c.752-.592 1.782.229 2.374.987a175.922 175.922 0 0 1 10.123 14.462c-.608-2.204-.619-4.541-1.275-6.735-.411-1.376-1.067-2.668-1.718-3.949zm21.74 8.96c.897-2.39 1.591-4.845 1.671-7.385.069-2.311-.454-4.707-1.676-6.681-.31-.502-1.59-2.546-2.295-2.38-1.254.298.395 2.476.678 3.02 1.083 2.054 2.193 4.226 2.124 6.548-.053 1.787-.806 3.468-1.409 5.155-.421 1.174-.763 2.428-.752 3.66-.091.139-.176.278-.278.411-.832 1.089-2.001 1.991-3.351 2.21.518-1.591 1.03-3.186 1.548-4.777.181-.565.25-1.344-.081-1.739.107-.219.171-.448.166-.694-.016-.437-.267-.827-.454-1.227-.715-1.537-.469-3.325-.299-5.011.214-2.081.294-4.221-.314-6.222-.609-2.002-2.023-3.859-4.008-4.52.171.181.342.368.507.549l-.672-.491c.416.865.832 1.735 1.248 2.605-.154.218-.309.437-.459.656.689-.363 1.569.16 1.884.875.315.71.23 1.526.155 2.3a45.964 45.964 0 0 0 .63 12.946c-.081.993-.251 2.001-.769 2.85-.56.912-1.606 1.601-2.668 1.446.235-1.025-.16-2.236-1.03-2.844-1.078 1.494-.443 3.815-.277 5.517.25 2.578.661 5.139 1.238 7.664a24.767 24.767 0 0 1 1.36-6.425c.582 2.107 1.164 4.215 1.74 6.323.016-.592.043-1.206.331-1.723.288-.518.923-.892 1.473-.684.453.171.699.651.88 1.1a19.613 19.613 0 0 1 1.073 11.542c.715.401 1.665-.085 2.06-.8.395-.715.395-1.58.379-2.401-.123-7.119-.251-14.238-.374-21.357l.021-.016zm-18.09 2.258c-.342.598 1.057 2.978 1.286 3.543 1.174 2.871 2.353 5.742 3.527 8.613a40.496 40.496 0 0 0-2.737-11.03c-.24-.598-1.404-2.316-2.081-1.126h.005zm1.825-15.22c-.203.305-.486.678-.832.571-.326-.101-.379-.528-.374-.864l.096-5.993c-1.612 1.158-1.403 2.674-1.521 4.397-.064.998.224 5.764-.459 6.345a17.783 17.783 0 0 0 3.971-4.835c-.278-.229-.684.081-.881.379z"/></g><path d="M139.125 156.957a6.754 6.754 0 0 0-1.563 1.761l1.563-1.761z" fill="#00050F"/><path d="m161.292 205.518-5.571-17.53c-5.23-5.384-14.835-10.315-15.668-17.77-1.072-9.573-2.545-9.189-2.545-11.569 0-.086.667-1.196 1.473-3.624.261-.789.395-1.942.539-2.887.149-.997 1.04-1.734 2.049-1.659.678.048 1.361.304 1.862.726.971.821 1.462 2.102 1.58 3.367.128 1.27-.075 2.54-.278 3.799 1.03 1.943 1.612 4.344 2.044 6.5.454-1.793.763-3.591 1.217-5.384.112-.07.064-.208.171-.278-.918-1.665-.235-1.622-2.076-5.31-3.101-6.211-6.5-12.172-9.168-20.059-.214-.608-.267-1.633-.102-2.263.625-2.348 3.021-1.974 4.141-.709.305.33.534.715.721 1.12 1.281 2.786 3.901 7.039 5.752 9.483l6.383 8.453s1.905-1.788 2.172-2.551h.005c.251-.768 0-6.777 0-6.777s-.384 1.152-1.403 1.152c-.737 0-2.199.523-3.341-.597-.929-.913-1.03-2.38-.326-3.479l2.386-3.72s1.659-1.66 4.088-.768c2.428.896 4.856 2.94 4.856 2.94s2.177-.256 4.087.507c1.921.768 4.04 3.207 4.04 3.207s2.177-.011 3.196.63c.257.16 3.907 5.085 2.983 9.178-.549 2.439-.752 5.94-1.008 6.895l-.064 23.587 4.424 15.641" stroke="#4B65A2" stroke-width=".534" stroke-miterlimit="10"/><path d="M162.818 136.951a41.966 41.966 0 0 1 1.457 10.683c0 .603 0 1.222.192 1.793s.635 1.1 1.222 1.222m4.675-10.192c1.585 3.341-.037 10.801.08 11.33.117.528.422 1.035.902 1.28m-14.739-16.574c-.187 1.062-.342 2.294-.529 3.356a6.222 6.222 0 0 1-2.14-4.247m-7.555 29.365c-.385.171-.769.336-1.153.507m1.446.417a6.672 6.672 0 0 0-.011 2.7m6.756-12.674c.427.768.854 1.531 1.276 2.3m1.173-10.716c.422-.597.849-1.195 1.271-1.793m16.596 10.209-.385 1.403m-2.721-5.251c.373-1.195.747-2.39 1.126-3.586m2.631-2.77c.661-.384 1.617-.085 1.942.603m-9.616-6.729a2.768 2.768 0 0 1 2.572.587m-26.335 2.973a3.911 3.911 0 0 1 3.314-1.249m-8.133-8.821a3.573 3.573 0 0 1 2.69-.63m-1.697 24.51a6.736 6.736 0 0 0-1.563 1.761m2.075-4.184c.843-.603 2.188.748 2.962.059.309-.272.331-.747.261-1.158-.069-.405-.213-.816-.154-1.222m20.726-1.377a9.66 9.66 0 0 1 .587 6.841m5.609-3.553a4.447 4.447 0 0 1-.534 2.935" stroke="#4B65A2" stroke-width=".534" stroke-miterlimit="10"/><path opacity=".2" d="M118.035 162.134a3.23 3.23 0 0 1-.048 1.109c-.347 1.607-1.35 6.287-1.718 8.848-.438 3.127-5.491 12.808-5.491 12.808s-4.654 5.784-7.023 8.794c-1.163 1.478-3.004 7.46-4.568 13.159a132.003 132.003 0 0 1-5.87-1.931 150.775 150.775 0 0 1-4.797-1.799c-2.23-.88-5.075-2.278-8.341-4.066.886-3.218 1.478-5.694 1.468-5.838-.027-.336 1.9-4.045 1.9-4.045l-1.682-22.114-.992-3.367a25.799 25.799 0 0 1-.288-13.507l2.897-4.301 1.356-.101 4.194-5.86s2.268-.683 2.85 1.025c.581 1.713-1.89 4.899-1.89 4.899l-.848 5.267 2.017 4.931 1.046.384s.352-8.682.112-10.417l2.23-7.924s1.33-2.647 1.74-3.981c.406-1.329 2.791-2.647 4.163-.315 0 0 .763 1.185.213 2.812-.56 1.628-1.024 2.909-1.024 2.909s-.507 6.713-.667 6.9c-.16.176.987 9.995.987 9.995l.875.389.31-9.365 1.819-8.8s-.149-4.232 2.834-3.719c0 0 1.398-.16 2.193 1.366.795 1.521.038 11.649.038 11.649l.736 10.47 1.179 8.074 1.388-5.534s.08-7.93 5.085-8.607c0 0 1.489-.267 1.793.768.305 1.03-.741 3.148-.592 5.176.112 1.425.315 3.031.416 3.859z" fill="#00050F"/><path d="M116.515 152.336c-.23-1.057-1.729-.902-1.729-.902-5.043.299-5.721 8.202-5.721 8.202l-1.804 5.411-.565-8.143.058-10.497s1.526-10.043.843-11.623c-.672-1.579-2.086-1.526-2.086-1.526-2.935-.736-3.106 3.495-3.106 3.495l-2.476 8.635-1.014 9.312-.843-.454s-.4-9.878-.23-10.043c.171-.171 1.19-6.831 1.19-6.831s.56-1.238 1.239-2.823c.672-1.579 0-2.822 0-2.822-1.19-2.429-3.666-1.297-4.174 0-.506 1.296-2.033 3.836-2.033 3.836l-2.828 7.733c.107 1.745-.896 10.379-.896 10.379l-1.014-.464-1.639-5.07 1.244-5.192s2.705-2.988 2.257-4.739c-.454-1.745-2.764-1.238-2.764-1.238l-4.627 5.529h-1.36l-3.213 4.066a25.776 25.776 0 0 0-.737 13.49l.737 3.432v22.178s-2.199 3.554-2.199 3.89c0 .155-.907 2.956-2.177 6.452 5.534 3.255 10.3 5.774 13.677 7.102a135.49 135.49 0 0 0 4.803 1.799c2.028-5.694 4.397-11.788 5.704-13.208 2.594-2.823 7.669-8.239 7.669-8.239s5.774-9.269 6.446-12.354c.561-2.529 1.911-7.119 2.38-8.698.107-.352.155-.731.134-1.105-.038-.832-.118-2.449-.118-3.879 0-2.034 1.206-4.067.982-5.118l-.01.027z" fill="#00050F"/><path d="M81.881 150.1c.86-1.073 2.636-1.489 3.634-.544.577.544.769 1.366.913 2.139.144.774.288 1.601.806 2.199.512.598 1.542.833 2.086.262.07 1.168.144 2.337.214 3.506a13.854 13.854 0 0 0 1.835-7.173c-.026-1.211-.208-2.449.075-3.628.283-1.18 1.195-2.332 2.412-2.386 1.345-.058 2.407 1.249 2.668 2.572.262 1.324-.042 2.679-.128 4.024a12.296 12.296 0 0 0 1.158 5.982c.283-.571.566-1.142.849-1.718.256 1.147.507 2.295.763 3.442.219-2.53.443-5.054.662-7.583.063-.715.128-1.452.464-2.081.331-.635.998-1.148 1.713-1.078.96.096 1.515 1.12 1.835 2.033 2.407 6.798 1.415 14.269.395 21.409.667.118 1.228-.549 1.398-1.211.166-.656.107-1.371.358-2.001.251-.63 1.025-1.153 1.596-.79.843.528.25 2.167 1.136 2.62a12.125 12.125 0 0 1 2.418-5.832c.592-.769 1.478-1.532 2.417-1.286.699.181 1.158.896 1.259 1.611.102.715 1.137-2.241.961-1.542.406-4.114-.406-4.552 0-8.666.075-.742 1.275-2.033.763-2.578-.486-.517-1.937-1.275-2.583-.976-.645.298-2.743 1.339-3.159 1.915-2.62 3.618-2.444 8.864-3.26 13.261-.694-6.702-1.388-13.517-.161-20.139.678-3.656 1.927-7.46.748-10.988-.539-1.606-1.97-3.218-3.635-2.913-1.344.245-2.161 1.606-2.705 2.86-1.836 4.216-2.652 8.794-3.458 13.325l3.01-13.672c.261-1.185.523-2.407.309-3.602-.213-1.195-1.03-2.364-2.22-2.615-1.18-.245-2.348.448-3.234 1.259-3.17 2.903-4.354 7.327-5.384 11.5.363-1.088.731-2.22.619-3.362-.112-1.142-.838-2.31-1.964-2.556-1.451-.32-2.775.977-3.41 2.322-.64 1.344-.955 2.887-1.969 3.975-.742-.832-2.134-.784-3.068-.171-.929.62-1.495 1.649-1.948 2.669a24.834 24.834 0 0 0-2.065 11.996c.736-1.638 2.593-2.7 4.38-2.492l-.32-2.727" fill="#00050F"/><path d="M85.398 158.782c-.043.673-.091 1.345-.134 2.023.208-.561 1.03-.769 1.479-.374-.102-.427.165-.843.336-1.248.17-.406.186-.982-.208-1.174-.47-.23-.934.309-1.18.768l-.064-.502-.23.507zm7.652-1.205a4.69 4.69 0 0 0-1.078 2.23c.23-.229.475-.459.78-.571.304-.112.693-.064.885.198.123.16.166.395.342.491.181.096.41-.022.523-.192.107-.171.123-.385.139-.587.026-.39.048-.785-.064-1.158-.112-.374-.39-.721-.769-.801-.379-.08-.832.198-.832.587l.08-.192-.006-.005zm7.412 1.841a6.042 6.042 0 0 0-1.12 2.684c.395-.059.72-.315 1.035-.555.315-.246.656-.491 1.051-.523.395-.032.843.256.827.651-.074-.448 0-.907.043-1.356.043-.448.069-.923-.101-1.344-.171-.422-.577-.779-1.03-.753-.454.027-.843.555-.63.955l-.085.241h.01zm-20.39 2.673a5.275 5.275 0 0 0-.619 2.513c0-.4.384-.725.78-.784.394-.059.794.096 1.141.304.08-.405.16-.822.075-1.222-.086-.4-.38-.79-.785-.859-.405-.069-.853.326-.741.72l-.129-.309.278-.368v.005z" fill="#00050F"/><path opacity=".5" d="M81.881 150.1c.86-1.073 2.636-1.489 3.634-.544.577.544.769 1.366.913 2.139.144.774.288 1.601.806 2.199.512.598 1.542.833 2.086.262.07 1.168.144 2.337.214 3.506a13.854 13.854 0 0 0 1.835-7.173c-.026-1.211-.208-2.449.075-3.628.283-1.18 1.195-2.332 2.412-2.386 1.345-.058 2.407 1.249 2.668 2.572.262 1.324-.042 2.679-.128 4.024a12.296 12.296 0 0 0 1.158 5.982c.283-.571.566-1.142.849-1.718.256 1.147.507 2.295.763 3.442.219-2.53.443-5.054.662-7.583.063-.715.128-1.452.464-2.081.331-.635.998-1.148 1.713-1.078.96.096 1.515 1.12 1.835 2.033 2.407 6.798 1.415 14.269.395 21.409.667.118 1.228-.549 1.398-1.211.166-.656.107-1.371.358-2.001.251-.63 1.025-1.153 1.596-.79.843.528.25 2.167 1.136 2.62a12.125 12.125 0 0 1 2.418-5.832c.592-.769 1.478-1.532 2.417-1.286.699.181 1.158.896 1.259 1.611.102.715 1.137-2.241.961-1.542.406-4.114-.406-4.552 0-8.666.075-.742 1.275-2.033.763-2.578-.486-.517-1.937-1.275-2.583-.976-.645.298-2.743 1.339-3.159 1.915-2.62 3.618-2.444 8.864-3.26 13.261-.694-6.702-1.388-13.517-.161-20.139.678-3.656 1.927-7.46.748-10.988-.539-1.606-1.97-3.218-3.635-2.913-1.344.245-2.161 1.606-2.705 2.86-1.836 4.216-2.652 8.794-3.458 13.325l3.01-13.672c.261-1.185.523-2.407.309-3.602-.213-1.195-1.03-2.364-2.22-2.615-1.18-.245-2.348.448-3.234 1.259-3.17 2.903-4.354 7.327-5.384 11.5.363-1.088.731-2.22.619-3.362-.112-1.142-.838-2.31-1.964-2.556-1.451-.32-2.775.977-3.41 2.322-.64 1.344-.955 2.887-1.969 3.975-.742-.832-2.134-.784-3.068-.171-.929.62-1.495 1.649-1.948 2.669a24.834 24.834 0 0 0-2.065 11.996c.736-1.638 2.593-2.7 4.38-2.492l-.32-2.727" fill="#00050F"/><path d="M85.398 158.782c-.043.673-.091 1.345-.134 2.023.208-.561 1.03-.769 1.479-.374-.102-.427.165-.843.336-1.248.17-.406.186-.982-.208-1.174-.47-.23-.934.309-1.18.768l-.064-.502-.23.507zm7.652-1.205a4.69 4.69 0 0 0-1.078 2.23c.23-.229.475-.459.78-.571.304-.112.693-.064.885.198.123.16.166.395.342.491.181.096.41-.022.523-.192.107-.171.123-.385.139-.587.026-.39.048-.785-.064-1.158-.112-.374-.39-.721-.769-.801-.379-.08-.832.198-.832.587l.08-.192-.006-.005zm7.412 1.841a6.042 6.042 0 0 0-1.12 2.684c.395-.059.72-.315 1.035-.555.315-.246.656-.491 1.051-.523.395-.032.843.256.827.651-.074-.448 0-.907.043-1.356.043-.448.069-.923-.101-1.344-.171-.422-.577-.779-1.03-.753-.454.027-.843.555-.63.955l-.085.241h.01zm-20.39 2.673a5.275 5.275 0 0 0-.619 2.513c0-.4.384-.725.78-.784.394-.059.794.096 1.141.304.08-.405.16-.822.075-1.222-.086-.4-.38-.79-.785-.859-.405-.069-.853.326-.741.72l-.129-.309.278-.368v.005z" opacity=".5" fill="#00050F"/><path d="M74.843 196.02c1.27-3.495 2.177-6.297 2.177-6.452 0-.336 2.199-3.89 2.199-3.89V163.5l-.737-3.431a25.756 25.756 0 0 1 .736-13.491l3.213-4.066h1.36l4.627-5.529s2.311-.506 2.765 1.239c.453 1.755-2.258 4.738-2.258 4.738l-1.243 5.193 1.638 5.069 1.014.464s1.004-8.634.897-10.379l2.828-7.732s1.526-2.54 2.033-3.837c.507-1.297 2.989-2.428 4.173 0 0 0 .673 1.238 0 2.823-.677 1.579-1.238 2.823-1.238 2.823s-1.014 6.66-1.19 6.83c-.17.166.23 10.043.23 10.043l.843.454 1.014-9.312 2.476-8.634s.171-4.232 3.106-3.496c0 0 1.408-.058 2.086 1.527.678 1.574-.843 11.622-.843 11.622l-.059 10.497.566 8.143 1.804-5.411s.677-7.903 5.72-8.202c0 0 1.5-.155 1.729.902.224 1.051-.982 3.084-.982 5.118 0 1.43.08 3.041.118 3.879.021.374-.022.747-.134 1.105-.469 1.574-1.819 6.169-2.38 8.698-.672 3.084-6.446 12.354-6.446 12.354s-5.075 5.416-7.668 8.239c-1.308 1.42-3.677 7.514-5.705 13.208" stroke="#4B65A2" stroke-width=".534" stroke-miterlimit="10"/><path d="M90.238 154.524a3.226 3.226 0 0 1-.758 3.042z" fill="#00050F"/><path d="M90.238 154.524a3.226 3.226 0 0 1-.758 3.042" stroke="#4B65A2" stroke-width=".534" stroke-miterlimit="10"/><path d="M81.636 161.984c.736-1.136 1.446-2.695 1.249-4.034-.385-2.62-1.58-5.635-1.04-8.229.34-1.654.688-3.314 1.029-4.968" fill="#00050F"/><path d="M81.636 161.984c.736-1.136 1.446-2.695 1.249-4.034-.385-2.62-1.58-5.635-1.04-8.229.34-1.654.688-3.314 1.029-4.968m20.038-7.519a5.247 5.247 0 0 1 2.663.005l.032-.741m-9.702-2.599a1.74 1.74 0 0 0 1.788.123c.555-.294.923-.918.907-1.548m16.591 19.948c-1.483.336-2.588 1.867-2.449 3.378.437.128.869.261 1.307.389" stroke="#4B65A2" stroke-width=".534" stroke-miterlimit="10"/><path d="M98.019 153.078c.058.896-.048 3.036.01 3.933z" fill="#00050F"/><path d="M98.019 153.078c.058.896-.048 3.036.01 3.933" stroke="#4B65A2" stroke-width=".534" stroke-miterlimit="10"/><path d="M99 154.316c-.106 1.468-.213 2.935-.325 4.397.01-.187.016-.373.027-.56" fill="#00050F"/><path d="M99 154.316c-.106 1.468-.213 2.935-.325 4.397.01-.187.016-.373.027-.56" stroke="#4B65A2" stroke-width=".534" stroke-miterlimit="10"/><path d="M107.144 166.686a7.339 7.339 0 0 1-.496 4.834z" fill="#00050F"/><path d="M107.144 166.686a7.339 7.339 0 0 1-.496 4.834m-13.032-12.524c-1.163 1.275-.992 4.333-.17 6.019m8.767-3.917c.027 1.377-.475 2.759-1.425 3.912m-15.646-5.406a5.462 5.462 0 0 0 .795 3.72m-5.747.261a4.522 4.522 0 0 0 .821 2.85m5.966-27.451c.603-.293 1.382-.165 1.868.299.219-.288.438-.582.662-.87m2.946 4.489c.88-.561 2.171-.342 2.822.48m5.727 2.187a3.569 3.569 0 0 1 3.031.064m-22.056 4.414c.555-.956 1.703-1.527 2.797-1.388m-6.377 6.495c.016-.689.581-1.329 1.264-1.42" stroke="#4B65A2" stroke-width=".534" stroke-miterlimit="10"/><path d="M215.9 116.806c12.216 0 22.119-9.903 22.119-22.119s-9.903-22.12-22.119-22.12c-12.217 0-22.12 9.904-22.12 22.12 0 12.216 9.903 22.119 22.12 22.119z" stroke="#4B65A2" stroke-width=".534" stroke-linecap="round" stroke-linejoin="round"/><path opacity=".2" d="M240.938 95.264c-4.718 7.732-6.393 6.691-22.477 14.397-8.165 3.912-16.057-8.666-10.721-21.575.262-.63 2.567-3.815 2.567-3.815.971-4.27 4.515-7.845 8.778-8.848 4.259-1.009 9.029.598 11.81 3.98 3.02-2.673 7.401-3.665 11.302-2.7.187.545.363 1.079.534 1.602.064.202.133.4.192.603.203.624.395 1.248.571 1.878a92.22 92.22 0 0 1 .982 3.607c-1.777-.496-3.565-.507-5.251.315-1.18.576-2.167 1.526-3.394 1.996-1.228.464-2.924.203-3.394-1.025.592 2.466 3.18 1.73 5.662 2.215 3.847.758 4.819 4.11 2.839 7.364v.006z" fill="#00050F"/><path d="M233.675 91.453s3.959-.539 5.838-.256a3.61 3.61 0 0 1 2.279 1.307c.16.203.256.449.272.705l.213 3.095c.027.352-.096.704-.341.96-.774.806-3.106 2.274-10.006 2.802-9.707.742 1.745-8.608 1.745-8.608v-.005z" fill="#00050F" stroke="#4B65A2" stroke-width=".534" stroke-linecap="round" stroke-linejoin="round"/><path d="M230.777 83.454c1.116 1.387 3.24 4.53 3.24 9.408 0 3.687-4.27 16.281-15.204 17.813-11.574 1.622-20.876-8.283-18.891-20.204 1.377-8.245 21.565-18.57 30.855-7.023v.006z" fill="#00050F" stroke="#4B65A2" stroke-width=".534" stroke-linecap="round" stroke-linejoin="round"/><path d="M216.636 107.927c9.275 0 16.793-7.118 16.793-15.898s-7.518-15.897-16.793-15.897c-9.275 0-16.794 7.118-16.794 15.897 0 8.78 7.519 15.898 16.794 15.898z" fill="#00050F"/><path d="M216.604 105.909c7.615 0 13.789-5.841 13.789-13.047s-6.174-13.048-13.789-13.048c-7.616 0-13.789 5.842-13.789 13.048s6.173 13.047 13.789 13.047z" fill="#4B65A2"/><path d="M233.429 92.03c0-8.779-7.519-15.898-16.793-15.898-9.275 0-16.794 7.12-16.794 15.897M229 102.787c2.754-2.828 4.43-6.606 4.43-10.758m-28.556 11.346c3.031 2.817 7.183 4.552 11.762 4.552 2.812 0 5.464-.657 7.796-1.815m-21.98-5.571c.219.325.453.645.699.96m-3.309-9.471c0 2.427.576 4.722 1.601 6.782" stroke="#4B65A2" stroke-width=".534" stroke-linecap="round" stroke-linejoin="round"/><path d="M241.285 96.378s-2.994-2.092-7.85-.197z" fill="#00050F"/><path d="M241.285 96.378s-2.994-2.092-7.85-.197" stroke="#4B65A2" stroke-width=".534" stroke-linecap="round" stroke-linejoin="round"/><path d="M238.707 97.835c-1.147.342-3.068.732-6.212.977z" fill="#00050F"/><path d="M238.707 97.835c-1.147.342-3.068.732-6.212.977" stroke="#4B65A2" stroke-width=".534" stroke-linecap="round" stroke-linejoin="round"/><path d="M240.26 97.174s-.181.16-.747.384z" fill="#00050F"/><path d="M240.26 97.174s-.181.16-.747.384" stroke="#4B65A2" stroke-width=".534" stroke-linecap="round" stroke-linejoin="round"/><path d="M242.923 78.908c-.059-.203-.128-.4-.192-.603-1.019-3.16-2.332-6.628-3.928-10.289-.293-.678-.603-1.366-.912-2.06l-.358.032c-1.531.155-3.143.347-4.402 1.217-1.265.886-2.012 2.706-1.196 4.013.801 1.297 2.898 2.017 2.567 3.495-3.42 1.927-7.594 1.703-11.398 2.674a18.56 18.56 0 0 0-6.356 2.999h-.011c-.603.453-1.184.934-1.729 1.451-.24.23-.491.48-.704.758l-.005.01c-.315.401-.555.85-.603 1.356-.134 1.425 1.163 2.396 2.545 3.015.256.118.24.486-.021.577-.902.362-1.783.784-2.492 1.44-.006 0-.011.006-.016.011-.438.395-.08 1.137.517 1.057.064-.011.144-.016.214-.022a4.025 4.025 0 0 1 1.611.192c.817.289 1.388.844 1.446 1.527.086 1.083-1.147 2.06-2.748 2.182-.389.038-.091.502.48.598 1.137.203 2.295-.016 3.416-.278 1.339-.32 2.769-.784 3.527-1.931.32-.486.416-1.121.32-1.697-.133-.79-.629-1.479-1.419-1.559a46.673 46.673 0 0 0 7.321-1.467h.006l.752-.23c.715-.213 1.468-.474 2.065-.901.374-.267.683-.582.902-.993.555-1.073-.229-2.77-1.414-2.545 3.442-1.35 7.081-2.14 10.561-3.384.555-.202 1.11-.416 1.654-.65v.005z" fill="#00050F"/><path d="m218.642 27.443-179.02.817 2.706-4.056a7.01 7.01 0 0 1 5.838-3.122h161.992c2.123 0 4.135.96 5.469 2.615l3.015 3.746v0zm-86.39 26.837h-9.808c-10.065 0-18.224 8.159-18.224 18.224v9.808c0 10.064 8.159 18.224 18.224 18.224h9.808c10.065 0 18.224-8.16 18.224-18.224v-9.808c0-10.065-8.159-18.224-18.224-18.224z" fill="#00050F" stroke="#4B65A2" stroke-width=".534" stroke-linecap="round" stroke-linejoin="round"/><path d="M112.625 81.314v6.575a3.732 3.732 0 0 0 3.735 3.735h22.557a3.74 3.74 0 0 0 3.735-3.709c.027-2.956.187-6.6.187-6.6h-30.214z" fill="#00050F" stroke="#4B65A2" stroke-width=".534" stroke-linecap="round" stroke-linejoin="round"/><path d="M195.184 83.513H63.263a3.38 3.38 0 0 1-3.149-2.151L39.767 29.14a2.082 2.082 0 0 1 1.942-2.839h175.028a2.082 2.082 0 0 1 1.943 2.839l-20.348 52.222a3.38 3.38 0 0 1-3.148 2.15v0z" fill="#00050F" stroke="#4B65A2" stroke-width=".534" stroke-linecap="round" stroke-linejoin="round"/><path d="M196.16 78.961H61.966L43.502 29.605H214.54L196.16 78.96z" fill="#00050F"/><path d="M142.684 83.443h-29.915v2.05h29.915v-2.05z" fill="#4B65A2"/><path d="M176.559 76.841H81.796c-.523 0-1.02-.234-1.11-.528l-13.48-42.825c-.15-.48.267-.87.94-.87h122.059c.672 0 1.088.39.939.87l-13.48 42.825c-.091.293-.587.528-1.11.528h.005z" fill="#00050F"/><path d="M176.207 75.87H82.148L70.691 38.245h116.974l-11.458 37.627z" fill="#00050F"/><path d="M95.65 47.583H77.841c-.438 0-.731.234-.646.528.086.288.507.528.94.528h17.706c.437 0 .747-.235.699-.528-.054-.294-.454-.528-.892-.528zm.592 3.254H81.097c-.432 0-.72.23-.646.513.075.283.486.507.918.507h15.06c.426 0 .736-.23.688-.507-.048-.283-.443-.513-.876-.513z" fill="#9DAFD7"/><path opacity=".5" d="M96.818 53.975H79.635c-.427 0-.705.22-.63.491.075.273.48.491.902.491h17.087c.421 0 .726-.218.678-.49-.048-.273-.433-.492-.86-.492h.006z" fill="#9DAFD7"/><path d="M97.373 57.001H87.28c-.416 0-.704.214-.64.475.064.261.454.475.87.475h10.038c.416 0 .715-.214.667-.475-.048-.261-.422-.475-.838-.475h-.005zm.539 2.929H81.305c-.41 0-.683.209-.614.46.075.25.46.459.87.459h16.516c.406 0 .705-.203.657-.46-.048-.255-.417-.458-.828-.458h.006zm.518 2.83H85.02c-.406 0-.679.197-.61.442.065.246.444.443.844.443h13.335c.4 0 .689-.197.646-.443-.043-.245-.405-.443-.81-.443h.004zm.501 2.737H85.739c-.395 0-.667.192-.603.432.065.235.433.427.828.427h13.122c.395 0 .677-.192.635-.427-.043-.235-.4-.432-.795-.432h.005zm.486 2.652H85.024c-.39 0-.656.186-.592.416.064.23.427.416.816.416h14.318c.39 0 .672-.187.63-.416-.043-.23-.39-.416-.78-.416z" fill="#9DAFD7"/><path opacity=".5" d="M99.891 70.716h-9.295c-.385 0-.651.181-.598.405.053.224.41.4.79.4h9.248c.384 0 .661-.18.619-.4-.038-.224-.385-.405-.769-.405h.005zM95.03 44.215H81.758c-.448 0-.747.245-.666.55.08.304.501.544.95.544h13.19c.444 0 .764-.245.71-.544-.053-.304-.458-.55-.907-.55h-.005z" fill="#9DAFD7"/><path d="M94.385 40.714H75.91c-.454 0-.752.257-.662.571.091.315.529.566.982.566h18.368c.454 0 .774-.25.72-.566-.058-.314-.47-.57-.928-.57h-.005zm5.96 32.483h-15.31c-.379 0-.635.176-.57.39.058.213.415.389.789.389h15.235c.374 0 .651-.176.614-.39-.037-.213-.379-.39-.752-.39h-.006z" fill="#9DAFD7"/><path opacity=".5" d="M101.904 48.772h3.452l-.171-1.318h-3.479l.198 1.318zm.48 3.208h3.394l-.166-1.27h-3.42l.192 1.27zm.464 3.1h3.335l-.16-1.232h-3.357l.182 1.232zm.448 2.988h3.282l-.16-1.185h-3.298l.176 1.185zm.438 2.892h3.223l-.155-1.147h-3.239l.171 1.148zm.416 2.797h3.17l-.144-1.11h-3.192l.166 1.11zm.411 2.705h3.116l-.138-1.072h-3.144l.166 1.072zm.389 2.621h3.069l-.134-1.04h-3.089l.154 1.04zm.385 2.534h3.02l-.133-1.003h-3.042l.155 1.003zm-3.933-26.174h3.517l-.177-1.366h-3.543l.203 1.366zm-.518-3.453h3.581l-.187-1.42h-3.607l.213 1.42zm4.819 32.087h2.972l-.128-.976h-2.994l.15.976z" fill="#9DAFD7"/><path d="M123.905 68.565c-.005-.23.304-.416.694-.416h51.133c.39 0 .651.186.587.416-.069.23-.437.416-.822.416h-50.871c-.39 0-.71-.187-.715-.416h-.006zm52.339-2.209h-28.309c-.395 0-.694-.192-.667-.427.027-.235.368-.432.763-.432h28.459c.395 0 .662.192.592.432-.069.235-.443.427-.838.427z" fill="#9DAFD7"/><path opacity=".5" d="M141.211 66.356h-8.805c-.395 0-.71-.192-.71-.427s.326-.432.726-.432h8.853c.395 0 .705.192.683.432-.016.235-.352.427-.747.427z" fill="#9DAFD7"/><path d="M159.59 63.645h-39.938c-.4 0-.736-.197-.752-.443-.016-.245.299-.443.704-.443h40.151c.406 0 .694.198.646.443-.048.246-.405.443-.811.443z" fill="#9DAFD7"/><path opacity=".5" d="M111.301 62.76h2.844c.406 0 .747.197.768.442.022.246-.288.443-.688.443h-2.834c-.4 0-.747-.197-.773-.443-.027-.245.277-.443.683-.443z" fill="#9DAFD7"/><path d="M165.369 60.39c-.053.25-.427.459-.838.459h-37.637c-.406 0-.742-.203-.748-.46 0-.255.326-.458.737-.458h37.84c.411 0 .699.208.646.459zm-54.367-.46h10.683c.411 0 .753.209.764.46.01.25-.315.459-.721.459h-10.625c-.405 0-.763-.203-.789-.46-.027-.255.282-.458.693-.458h-.005zm-.315-2.929h41.053c.416 0 .726.214.694.475-.038.261-.401.475-.817.475h-40.829c-.416 0-.773-.214-.805-.475-.027-.261.282-.475.704-.475zm26.655-2.044c-.421 0-.752-.218-.741-.49.01-.273.362-.492.789-.492h21.661c.421 0 .731.22.683.491-.048.273-.427.491-.849.491h-21.543zm-26.975-.982h18.747c.421 0 .768.22.768.491 0 .273-.342.491-.768.491h-18.646c-.421 0-.79-.218-.816-.49-.032-.273.288-.492.715-.492zm70.035-2.124h-51.603c-.427 0-.779-.23-.779-.507 0-.282.346-.512.779-.512h51.896c.432 0 .715.23.635.512-.08.283-.496.507-.923.507h-.005zm.923-3.211h-45.408c-.437 0-.784-.236-.773-.53.01-.293.373-.527.811-.527h45.674c.438 0 .726.234.64.528-.085.288-.507.528-.944.528z" fill="#9DAFD7"/><path opacity=".5" d="M182.28 45.309h-9.509c-.443 0-.748-.245-.678-.544.069-.304.491-.55.939-.55h9.563c.448 0 .742.245.651.55-.085.304-.518.544-.966.544z" fill="#9DAFD7"/><path d="M166.122 45.309h-34.916c-.443 0-.806-.245-.801-.544 0-.304.369-.55.817-.55h35.124c.448 0 .763.245.699.55-.064.304-.47.544-.918.544h-.005zm-53.973 25.407h32.243c.384 0 .677.181.656.405-.021.224-.352.4-.731.4h-32.082c-.385 0-.71-.18-.737-.4-.026-.224.267-.405.651-.405zm.267 2.481h49.538c.379 0 .646.176.603.39-.048.213-.39.389-.763.389h-49.292c-.374 0-.7-.176-.726-.39-.022-.213.261-.39.64-.39zm51.971-31.346h-25.22c-.453 0-.811-.25-.795-.566.016-.314.395-.57.854-.57H164.6c.454 0 .779.255.715.57-.058.315-.475.566-.928.566z" fill="#9DAFD7"/><path opacity=".5" d="M132.017 41.851h-22.942c-.453 0-.848-.25-.885-.566-.038-.314.304-.57.763-.57h23.08c.453 0 .821.255.816.57-.005.315-.379.566-.832.566zm19.531 28.865c.384 0 .667.181.635.405-.032.224-.368.4-.752.4h-2.493c-.384 0-.672-.18-.645-.4.026-.224.357-.405.741-.405h2.514zm-30.583-2.151c.011.23-.293.416-.683.416h-3.394c-.39 0-.72-.187-.736-.416-.016-.23.282-.416.672-.416h3.415c.39 0 .715.186.726.416zm40.957-11.089c-.048.261-.427.475-.843.475h-3.971c-.416 0-.715-.214-.677-.475.042-.261.411-.475.832-.475h3.992c.416 0 .715.214.667.475zm12.386 2.454c.411 0 .688.209.619.46-.07.25-.454.459-.859.459h-3.165c-.406 0-.688-.203-.63-.46.059-.255.443-.458.854-.458h3.181zm-51.758-8.079c-.427 0-.785-.23-.801-.507-.01-.282.331-.512.763-.512h3.368c.432 0 .784.23.79.512 0 .283-.342.507-.769.507h-3.351z" fill="#9DAFD7"/><path d="M76.69 35.421c.26.875-.246 1.574-1.121 1.574s-1.82-.699-2.103-1.574c-.288-.886.208-1.611 1.11-1.611.902 0 1.847.725 2.113 1.611zm4.343.026c.235.875-.293 1.575-1.174 1.575-.88 0-1.798-.7-2.049-1.575-.256-.886.262-1.611 1.164-1.611.901 0 1.825.726 2.06 1.611zm4.392-.026c.203.875-.347 1.574-1.227 1.574-.88 0-1.772-.699-2.001-1.574-.23-.886.315-1.611 1.216-1.611.902 0 1.804.725 2.007 1.611h.005z" fill="#00050F"/><path opacity=".1" d="m43.502 29.605 14.382 38.438 17.349-38.438h-31.73zm24.265 49.356 28.78-49.356h30.123L84.315 78.961H67.767zm71.886-49.597L94.796 78.961h6.91l46.464-49.357-8.517-.24zm8.859 49.597 49.297-49.356h6.959l-50.829 49.356h-5.427z" fill="#00050F"/><path d="M81.668 100.38h-11.26a2.647 2.647 0 0 0-2.647 2.647v5.475a2.646 2.646 0 0 0 2.647 2.647h2.94l2.231 5.054 3.143-5.054h2.94a2.646 2.646 0 0 0 2.647-2.647v-5.475a2.647 2.647 0 0 0-2.646-2.647h.005zm34.27.769h-11.259a2.646 2.646 0 0 0-2.647 2.647v5.475a2.646 2.646 0 0 0 2.647 2.647h2.94l2.231 5.054 3.143-5.054h2.94a2.647 2.647 0 0 0 2.647-2.647v-5.475a2.647 2.647 0 0 0-2.647-2.647h.005zm33.225-.325h-11.26a2.646 2.646 0 0 0-2.647 2.646v5.476a2.646 2.646 0 0 0 2.647 2.646h2.94l2.231 5.054 3.143-5.054h2.94a2.645 2.645 0 0 0 2.647-2.646v-5.476a2.645 2.645 0 0 0-2.647-2.646h.006zm32.744-.444h-11.26a2.647 2.647 0 0 0-2.647 2.647v5.475a2.646 2.646 0 0 0 2.647 2.647h2.94l2.231 5.054 3.143-5.054h2.941a2.645 2.645 0 0 0 2.646-2.647v-5.475a2.646 2.646 0 0 0-2.646-2.647h.005z" fill="#00050F" stroke="#4B65A2" stroke-width=".534" stroke-linecap="round" stroke-linejoin="round"/><path d="M174.815 104.452h3.159v.683h-3.159v-.683zm0 1.66h3.159v.683h-3.159v-.683z" fill="#4B65A2"/><path d="M98.83 94.041H87.57a2.646 2.646 0 0 0-2.646 2.647v5.475a2.647 2.647 0 0 0 2.646 2.647h2.94l2.231 5.054 3.143-5.054h2.94a2.647 2.647 0 0 0 2.648-2.647v-5.475a2.647 2.647 0 0 0-2.647-2.647h.005z" fill="#00050F" stroke="#4B65A2" stroke-width=".534" stroke-linecap="round" stroke-linejoin="round"/><path d="M90.553 96.32h1.639v.683h-.78v5.048h.78v.689h-1.638v-6.42zm3.762 6.414v-.689h.774v-5.048h-.774v-.683h1.633v6.42h-1.633z" fill="#4B65A2"/><path d="M132.3 93.481h-11.26a2.647 2.647 0 0 0-2.647 2.647v5.475a2.647 2.647 0 0 0 2.647 2.647h2.94l2.231 5.053 3.143-5.053h2.94a2.646 2.646 0 0 0 2.647-2.647v-5.475a2.646 2.646 0 0 0-2.647-2.647h.006z" fill="#00050F" stroke="#4B65A2" stroke-width=".534" stroke-linecap="round" stroke-linejoin="round"/><path d="M124.38 98.945c.273.091.406.272.406.7v1.301c0 .331.165.523.507.523h.144v.689h-.341c-.774 0-1.164-.39-1.164-1.116v-1.414c0-.224-.117-.33-.309-.33h-.224v-.7h.224c.192 0 .309-.101.309-.33v-1.415c0-.725.39-1.115 1.164-1.115h.341v.683h-.144c-.342 0-.507.192-.507.523v1.302c0 .427-.128.609-.406.7zm5.23-.351v.699h-.235c-.186 0-.304.1-.304.33v1.415c0 .725-.4 1.115-1.174 1.115h-.341v-.689h.144c.352 0 .512-.192.512-.523v-1.302c0-.426.123-.608.4-.699-.272-.09-.4-.272-.4-.699V96.94c0-.33-.165-.523-.512-.523h-.144v-.683h.341c.774 0 1.174.39 1.174 1.115v1.415c0 .224.118.33.304.33h.235z" fill="#4B65A2"/><path d="M165.412 92.371h-11.26a2.647 2.647 0 0 0-2.647 2.647v5.475a2.647 2.647 0 0 0 2.647 2.647h2.941l2.23 5.054 3.143-5.054h2.941a2.647 2.647 0 0 0 2.647-2.647v-5.475a2.647 2.647 0 0 0-2.647-2.647h.005z" fill="#00050F" stroke="#4B65A2" stroke-width=".534" stroke-linecap="round" stroke-linejoin="round"/><path d="M159.339 96.426c0-.341.256-.57.561-.57a.55.55 0 0 1 .56.57.55.55 0 0 1-.56.571.56.56 0 0 1-.561-.57zm1.126 2.61c0 .149-.032.272-.16.592l-.352.966h-.555l.272-1.051a.524.524 0 0 1-.32-.507c0-.342.24-.571.555-.571.315 0 .555.234.555.57h.005z" fill="#4B65A2"/><path d="M121.403 188.127h11.259a2.646 2.646 0 0 0 2.647-2.647v-5.475a2.646 2.646 0 0 0-2.647-2.647h-2.94l-.859-5.054-4.515 5.054h-2.94a2.646 2.646 0 0 0-2.647 2.647v5.475a2.647 2.647 0 0 0 2.647 2.647h-.005z" fill="#00050F" stroke="#4B65A2" stroke-width=".534" stroke-linecap="round" stroke-linejoin="round"/><path d="m125.357 181.617-2.364.886 2.364.886v.715l-3.159-1.227v-.742l3.159-1.228v.715-.005zm2.497-2.487h.769l-2.263 6.457h-.768l2.262-6.457zm4.088 3.005v.742l-3.159 1.227v-.715l2.364-.886-2.364-.885v-.716l3.159 1.228v.005z" fill="#4B65A2"/><path d="M49.831 148.243h11.26a2.647 2.647 0 0 0 2.647-2.647v-5.475a2.647 2.647 0 0 0-2.647-2.647h-2.94l.64-5.054-6.014 5.054h-2.94a2.647 2.647 0 0 0-2.647 2.647v5.475a2.647 2.647 0 0 0 2.647 2.647h-.006z" fill="#00050F" stroke="#4B65A2" stroke-width=".534" stroke-linecap="round" stroke-linejoin="round"/><path d="M230.089 142.031c0 2.199-.181 4.328-.517 6.335-1.548 9.232-6.404 15.971-12.146 15.971a7.63 7.63 0 0 1-1.526-.16c-6.271-1.328-11.137-10.737-11.137-22.146 0-12.316 5.672-16.676 12.658-16.676 6.985 0 12.663 4.355 12.663 16.676h.005z" fill="#00050F"/><path d="M225.5 142.176c.469 6.606-.667 13.245-2.567 19.589 4.771-3.916 6.964-10.069 8.949-15.913 1.441-4.242 2.898-8.618 2.642-13.09-.262-4.472-2.658-9.125-6.858-10.694-2.049-.768-4.44-.71-6.467.107-3.517 1.409-1.591 2.556-.118 5.085 2.642 4.52 4.051 9.723 4.419 14.926v-.01z" fill="#00050F"/><path opacity=".5" d="M225.5 142.176c.469 6.606-.667 13.245-2.567 19.589 4.771-3.916 6.964-10.069 8.949-15.913 1.441-4.242 2.898-8.618 2.642-13.09-.262-4.472-2.658-9.125-6.858-10.694-2.049-.768-4.44-.71-6.467.107-3.517 1.409-1.591 2.556-.118 5.085 2.642 4.52 4.051 9.723 4.419 14.926v-.01z" fill="#00050F"/><path d="M230.089 142.031c0 2.199-.181 4.328-.517 6.335-1.548 9.232-6.404 15.971-12.146 15.971a7.63 7.63 0 0 1-1.526-.16c-6.271-1.328-11.137-10.737-11.137-22.146 0-12.316 5.672-16.676 12.658-16.676 6.985 0 12.663 4.355 12.663 16.676h.005z" stroke="#4B65A2" stroke-width=".534" stroke-miterlimit="10"/><path d="M224.23 153.366c-.849 2.845-2.247 5.518-4.152 7.791z" fill="#00050F"/><path d="M224.23 153.366c-.849 2.845-2.247 5.518-4.152 7.791m4.552-9.344c-.069.299-.139.603-.219.902" stroke="#4B65A2" stroke-width=".534" stroke-miterlimit="10"/><path d="M224.598 142.005c.672 2.839.742 5.811.251 8.688z" fill="#00050F"/><path d="M224.598 142.005c.672 2.839.742 5.811.251 8.688m-20.086-8.661s14.392-5.689 25.321 0" stroke="#4B65A2" stroke-width=".534" stroke-miterlimit="10"/><path d="M217.426 125.361s1.441 5.336 1.606 14.013z" fill="#00050F"/><path d="M217.426 125.361s1.441 5.336 1.606 14.013" stroke="#4B65A2" stroke-width=".534" stroke-miterlimit="10"/><path d="M219.432 131.849c.187 1.66-.101 3.074-.64 3.16-.539.085-1.126-1.19-1.313-2.85-.186-1.66.102-3.074.641-3.159.539-.086 1.126 1.19 1.312 2.849z" fill="#00050F" stroke="#4B65A2" stroke-width=".534" stroke-linecap="round" stroke-linejoin="round"/><path d="M211.748 168.601h-16.874a4.138 4.138 0 0 1-4.104-3.58 2.877 2.877 0 0 1-.048-.571v-39.805c0-.192.011-.384.048-.576a4.133 4.133 0 0 1 4.104-3.575h47.878c.726 0 1.404.186 1.991.512" stroke="#4B65A2" stroke-width=".534" stroke-miterlimit="10"/></svg>