<svg xmlns="http://www.w3.org/2000/svg" viewBox="0 0 24 24"><g data-name="Incomming Call"><g data-name="&lt;Group&gt;"><path fill="none" stroke="#4A64A0" stroke-linecap="round" stroke-linejoin="round" d="m19.5 4.5-6 6M13.5 6.5v4h4" data-name="&lt;Path&gt;"/><g data-name="&lt;Group&gt;"><path fill="none" stroke="#4A64A0" stroke-linecap="round" stroke-linejoin="round" d="M7.28 11.06a11.92 11.92 0 0 0 5.67 5.67L15.22 15a.94.94 0 0 1 1-.23 10.77 10.77 0 0 0 3.37.54 1 1 0 0 1 .94.94v3.3a1 1 0 0 1-.94.94A16.05 16.05 0 0 1 3.5 4.44a1 1 0 0 1 .94-.94h3.31a1 1 0 0 1 .94.94 10.73 10.73 0 0 0 .54 3.37 1 1 0 0 1-.24 1Z" data-name="&lt;Path&gt;"/></g></g></g></svg>