<svg xmlns="http://www.w3.org/2000/svg" enable-background="new 0 0 16 16" viewBox="0 0 16 16"><g display="none"><line x1="7.5" x2="3" y1="4.5" y2="4.5" fill="none" stroke="#000" stroke-linecap="round" stroke-linejoin="round" stroke-miterlimit="10"/><path fill="none" stroke="#4A64A0" stroke-linecap="round" stroke-linejoin="round" stroke-miterlimit="10" d="M5.5,12.5V7c0-1.4-1.1-2.5-2.5-2.5h0C1.6,4.5,0.5,5.6,0.5,7v5c0,0.3,0.2,0.5,0.5,0.5h14c0.3,0,0.5-0.2,0.5-0.5
		V7c0-1.4-1.1-2.5-2.5-2.5H9.5"/><polyline fill="none" stroke="#4A64A0" stroke-linecap="round" stroke-linejoin="round" stroke-miterlimit="10" points="9.5 12.5 9.5 15.5 7.5 15.5 7.5 12.5"/><line x1="2.5" x2="3.5" y1="10.5" y2="10.5" fill="none" stroke="#000" stroke-linecap="round" stroke-linejoin="round" stroke-miterlimit="10"/><polyline fill="none" stroke="#4A64A0" stroke-linecap="round" stroke-linejoin="round" stroke-miterlimit="10" points="7.5 4.5 7.5 .5 10 2 7.5 3"/><line x1="13.5" x2="11.5" y1="10.5" y2="10.5" fill="none" stroke="#4A64A0" stroke-linecap="round" stroke-linejoin="round" stroke-miterlimit="10"/></g><path d="M13,4H9.5C9.2,4,9,4.2,9,4.5S9.2,5,9.5,5H13c1.1,0,2,0.9,2,2v5H6V7c0-0.8-0.3-1.5-0.8-2h2.3C7.8,5,8,4.8,8,4.5V3.3
			l2.2-0.9c0.2-0.1,0.3-0.2,0.3-0.4c0-0.2-0.1-0.4-0.2-0.5L7.8,0.1C7.6,0,7.4,0,7.3,0.1C7.1,0.2,7,0.3,7,0.5V3c0,0,0,0,0,0v1H3
			C1.3,4,0,5.3,0,7v5c0,0.6,0.4,1,1,1h6v2.5C7,15.8,7.2,16,7.5,16h2c0.3,0,0.5-0.2,0.5-0.5V13h5c0.6,0,1-0.4,1-1V7
			C16,5.3,14.7,4,13,4z M8,1.4l0.9,0.5L8,2.3V1.4z M5,12H1V7c0-1.1,0.9-2,2-2s2,0.9,2,2V12z M9,15H8v-2h1V15z"/><path d="M3.5 10h-1C2.2 10 2 10.2 2 10.5S2.2 11 2.5 11h1C3.8 11 4 10.8 4 10.5S3.8 10 3.5 10zM13.5 11c.3 0 .5-.2.5-.5S13.8 10 13.5 10h-2c-.3 0-.5.2-.5.5s.2.5.5.5H13.5z"/></svg>